/* XPM */
static char *e8d13af7e1bf4f7accbede657aa15b59o96iYLagTywvX3x1[] = {
/* columns rows colors chars-per-pixel */
"50 48 13 1 ",
"  c None",
". c #010101",
"X c #0C0C0C",
"o c gray11",
"O c #550D1C",
"+ c #8B1122",
"@ c #8C4430",
"# c #FFED55",
"$ c gray53",
"% c #B6B6B6",
"& c #F6CCA1",
"* c #C9D1DF",
"= c white",
/* pixels */
"                                                  ",
"                                                  ",
"                                                  ",
"                                                  ",
"                                                  ",
"                                                  ",
"                                                  ",
"                                                  ",
"                                                  ",
"                                                  ",
"                                                  ",
"                   OOOO++++                       ",
"                 OOOO+++++++                      ",
"                OOO++++++++++                     ",
"               OOO++++.....++                     ",
"              OOO++++.......++                    ",
"              OOO+++.........+                    ",
"             OOO+++..........+                    ",
"             OOO+++....++..+++                    ",
"            OOOO+++....++..+++                    ",
"            OOOO+++..........+                    ",
"         ##OOOOOO+++.........+                    ",
"       #   OOOOOO+++........++##                  ",
"     ###    OOOOOO+++......O+     #               ",
"   ##         OOOOO+++++++OO       ##             ",
"   #       @@@  OOOO+OOOOOO          ##           ",
"  #          @@@ OO+++OOO              #          ",
"               @@@++++O+OO                        ",
"                O&&&+OOO+O               #        ",
"               OO&&&@@XO+++               #       ",
"              OOO++++@@@+++                       ",
"             OOO+++++XX@@@+                       ",
"             OOO++++XXX++@@                       ",
"            OOO+++++XXX+++@@@             #       ",
"           OOO+++++XXXX++++O@@@          ##       ",
"          OOOO+++++XXXX+++OO  @@@        #        ",
"          OOOO++++XXXX++++OO    @@@               ",
"            OOOO+oXXXX+OOOOO      @@@             ",
"             OOOO$XXXXOOOOO         ###           ",
"               %%     %%          ##**@@@         ",
"                                 ******==         ",
"                           ##  *******==          ",
"                          #  ******====           ",
"                 ##        *****====              ",
"                         ***=====                 ",
"                       ======                     ",
"                                                  ",
"                                                  "
};
