/* XPM */
static char *f45f052102bb4c5ad792c2f8d593e3c7PfFmtrpgoWelDPze[] = {
/* columns rows colors chars-per-pixel */
"50 48 13 1 ",
"  c None",
". c #010101",
"X c #0C0C0C",
"o c #550D1C",
"O c #5D5D5D",
"+ c #8B1122",
"@ c #8C4430",
"# c #F5535D",
"$ c gray53",
"% c #B6B6B6",
"& c #F6CCA1",
"* c #C9D1DF",
"= c white",
/* pixels */
"                                                  ",
"                                                  ",
"                                                  ",
"                                                  ",
"                                                  ",
"                                                  ",
"                                                  ",
"                                                  ",
"                                                  ",
"                          oooo++++                ",
"                        oooo+++++++               ",
"                 ==========+++++++++              ",
"             =====******o++++.....++              ",
"          ====*******ooo++++.......++             ",
"       ====********* ooo+++.........+             ",
"      ==*********   ooo+++..........+             ",
"     ==********     ooo+++....##..##+             ",
"     @@@******     oooo+++....##..##+             ",
"       @@@***      oooo+++..........+             ",
"         @@@      oooooo+++.........+             ",
"           @@@    oooooo+++........++             ",
"             @@@   oooooo+++......o+              ",
"               @@@   ooooo+++++++oo               ",
"                 @@@   oooo+oooooo                ",
"                   @@@  oo+++ooo                  ",
"                     @@@o++++o+oo                 ",
"                       @@&&&ooo+o                 ",
"                      ooo&&&oXo+++                ",
"                    oooo+++@@@o+++                ",
"                 oooooo++++XX@@@++o               ",
"              ooooooooo+++XXXX+@@@o               ",
"               ooooooo++++XXXX++++o               ",
"               oooooo++++XXXXX++++o               ",
"                oooo++++XXXXXX+++oo               ",
"                 ooo++XXXXXXX++++oo               ",
"                      XXXXXXX+oooo                ",
"                      OOOXXXXOOO                  ",
"                      $$$    $$$                  ",
"                      %%%    %%%                  ",
"                      %%     %%                   ",
"                                                  ",
"                                                  ",
"                                                  ",
"                                                  ",
"                                                  ",
"                                                  ",
"                                                  ",
"                                                  "
};
