/* XPM */
static char *_8287b441bc04c5785c6a6a58a19befec6P07go564E5PVy8[] = {
/* columns rows colors chars-per-pixel */
"50 48 13 1 ",
"  c None",
". c #010101",
"X c #0C0C0C",
"o c #550D1C",
"O c #8B1122",
"+ c #C61928",
"@ c #8C4430",
"# c #FFED55",
"$ c gray53",
"% c #B6B6B6",
"& c #F6CCA1",
"* c #C9D1DF",
"= c white",
/* pixels */
"                                                  ",
"                                                  ",
"                                                  ",
"                                                  ",
"                                                  ",
"                                                  ",
"                                                  ",
"                                                  ",
"                                                  ",
"                                                  ",
"                                                  ",
"                        ooooOOOO                  ",
"                      ooooOOOOOOO                 ",
"                     oooOOOOOOOOOO                ",
"                    oooOOOO.....OO                ",
"                   oooOOOO.......OO               ",
"                   oooOOO.........O               ",
"                  oooOOO..........O               ",
"                  oooOOO....++..++O               ",
"                 ooooOOO....++..++O               ",
"               ##ooooOOO..........O               ",
"             ###ooooooOOO.........O##             ",
"            ####ooooooOOO........OO###            ",
"          #######ooooooOOO......oO######          ",
"         #####     oooooOOOOOOOo##########        ",
"        ####    @@@  ooooOoooooo ###########      ",
"       ###        @@@ ooOOOooo      #########     ",
"      ##            @@@OOOOoOoo       ########    ",
"      #              o&&&OoooOo         #######   ",
"                    oo&&&@@XoOOO         #######  ",
"                   oooOOOO@@@OOO          ######  ",
"                  oooOOOOOXX@@@O          ######  ",
"                  oooOOOOXXXOO@@          ######  ",
"                 oooOOOOOXXXOOO@@@        ######  ",
"                oooOOOOOXXXXOOOOo@@@     #######  ",
"               ooooOOOOOXXXXOOOoo  @@@   ######   ",
"               ooooOOOOXXXXOOOOoo    @@#######    ",
"                 ooooOXXXXXOooooo     #######     ",
"                  oooo$XXXXooooo    ########      ",
"                    %%     %%      ######**@@@    ",
"                                #######*****==    ",
"                              ######*******==     ",
"                          ######  ******====      ",
"                      ######    *****====         ",
"                              ***=====            ",
"                            ======                ",
"                                                  ",
"                                                  "
};
