/* XPM */
static char *b64d6cda0ec544b0c9d8caf8430e177ffsK60ie6ufr85lFV[] = {
/* columns rows colors chars-per-pixel */
"50 50 220 2 ",
"   c None",
".  c #060107",
"X  c #1E0D03",
"o  c #1C130E",
"O  c #270C02",
"+  c #210F0F",
"@  c #3B0B01",
"#  c #3A0902",
"$  c #26140B",
"%  c #331103",
"&  c #3B1301",
"*  c #35160B",
"=  c #261514",
"-  c #301F17",
";  c #33211D",
":  c #362725",
">  c #3F322B",
",  c #232E30",
"<  c #450C04",
"1  c #540D02",
"2  c #431402",
"3  c #4B1401",
"4  c #451D03",
"5  c #4B1B00",
"6  c #431B0A",
"7  c #4C1C0B",
"8  c #421009",
"9  c #531501",
"0  c #531C00",
"q  c #5C1B04",
"w  c #531C0C",
"e  c #5A1D0C",
"r  c #5D1506",
"t  c #481A14",
"y  c #551D11",
"u  c #591A14",
"i  c #631C04",
"p  c #691902",
"a  c #691909",
"s  c #7A1D01",
"d  c #751A00",
"f  c #711F11",
"g  c #601B16",
"h  c #412104",
"j  c #4D2102",
"k  c #48260C",
"l  c #522300",
"z  c #5E2205",
"x  c #54230E",
"c  c #592A0D",
"v  c #4B2418",
"b  c #5B2314",
"n  c #55241B",
"m  c #5D2519",
"M  c #592C19",
"N  c #5D351B",
"B  c #4A3113",
"V  c #6B2403",
"C  c #6D2909",
"Z  c #662408",
"A  c #762402",
"S  c #7C2502",
"D  c #7D2B03",
"F  c #74260A",
"G  c #7B240B",
"H  c #742B0C",
"J  c #7D2B0B",
"K  c #772A00",
"L  c #7E320E",
"P  c #642C16",
"I  c #6E2C13",
"U  c #682518",
"Y  c #742611",
"T  c #792511",
"R  c #742C13",
"E  c #7C2D12",
"W  c #7E2D18",
"Q  c #67351E",
"!  c #683215",
"~  c #7D3315",
"^  c #7C331A",
"/  c #773518",
"(  c #592D23",
")  c #45352E",
"_  c #5E3423",
"`  c #503C21",
"'  c #4C3F3A",
"]  c #473833",
"[  c #553A3B",
"{  c #612D23",
"}  c #672C26",
"|  c #653324",
" . c #6A3925",
".. c #783829",
"X. c #6E3C33",
"o. c #743E32",
"O. c #742923",
"+. c #4E413B",
"@. c #52423A",
"#. c #6A462C",
"$. c #6A4538",
"%. c #7A4434",
"&. c #744239",
"*. c #764F3A",
"=. c #7C4833",
"-. c #3F565E",
";. c #5A4C4A",
":. c #51494B",
">. c #7E4644",
",. c #675649",
"<. c #795446",
"1. c #665B56",
"2. c #776558",
"3. c #5E5566",
"4. c #7C7374",
"5. c #726863",
"6. c #8B1D00",
"7. c #801906",
"8. c #832501",
"9. c #8B2502",
"0. c #832902",
"q. c #8C2C04",
"w. c #84250B",
"e. c #832B0A",
"r. c #8A2D0C",
"t. c #8E2609",
"y. c #922405",
"u. c #85320B",
"i. c #8D330C",
"p. c #88380A",
"a. c #92330E",
"s. c #9B360A",
"d. c #832C11",
"f. c #972912",
"g. c #843213",
"h. c #8B3414",
"j. c #8A341B",
"k. c #87381A",
"l. c #913413",
"z. c #973A17",
"x. c #8A3623",
"c. c #8D2E24",
"v. c #96451A",
"b. c #B94D1E",
"n. c #854729",
"m. c #8D4A34",
"M. c #824E3C",
"N. c #814937",
"B. c #895136",
"V. c #88573A",
"C. c #99563E",
"Z. c #974126",
"A. c #A75D38",
"S. c #895A45",
"D. c #945D49",
"F. c #9A5B49",
"G. c #875853",
"H. c #824B44",
"J. c #A55A4E",
"K. c #83624F",
"L. c #9A654A",
"P. c #836D5F",
"I. c #9A635D",
"U. c #986958",
"Y. c #A76B58",
"T. c #AB6E53",
"R. c #846A64",
"E. c #9D6F62",
"W. c #997568",
"Q. c #8C7C73",
"!. c #887C79",
"~. c #947C74",
"^. c #8B7067",
"/. c #B16E65",
"(. c #A47666",
"). c #A47E71",
"_. c #C07F6B",
"`. c #8E8077",
"'. c #998477",
"]. c #9E9075",
"[. c #AA8469",
"{. c #B2826D",
"}. c #BA8778",
"|. c #BD9679",
" X c #A28178",
".X c #C98C76",
"XX c #C79A7D",
"oX c #D8987F",
"OX c #777385",
"+X c #71838F",
"@X c #858D8F",
"#X c #8B8A9D",
"$X c #9A8A8C",
"%X c #BC9286",
"&X c #AD948A",
"*X c #9EABB2",
"=X c #B4AEAE",
"-X c #CA9588",
";X c #D29B87",
":X c #C6A097",
">X c #E3A893",
",X c #EBB599",
"<X c #CDB1B0",
"1X c #ACB8C6",
"2X c #B7D0CA",
"3X c #DFD6D1",
"4X c #C7CFCD",
"5X c #E2D6D8",
"6X c #C8E4D8",
"7X c #DAD8E5",
"8X c #E1DEEA",
"9X c #DBE4EA",
"0X c #D5EBF6",
"qX c #D5F1E5",
"wX c #E6E7F4",
"eX c #EAF5FD",
"rX c #FFF6FF",
"tX c #F3FCFE",
"yX c #FDFEFE",
"uX c #F6FBFB",
/* pixels */
"                                                          ' 2.                                      ",
"                                                          $ ,.                                      ",
"                                                        1.X '.                              `.) o   ",
"                                                        @.-                               ) $ :     ",
"                                                        ] :                             - ; !.      ",
"                                                        +.]                           = ;.          ",
"                                                        2.'                       !.+               ",
"                                                        !.]                       :                 ",
"                                                          ]                     :                   ",
"                                                          >                   >                     ",
"                                                          ,.                :.                      ",
"                                                            1.              1.                      ",
"                                                            +.            +.                        ",
"                                                              1.          4.                        ",
"                                                              ;.        +.                          ",
"                                                                ;.    =X5.                          ",
"                                                                #XOX  @X*X                          ",
"                                                                  1XtXtXtX9X                        ",
"                                                                2XtXuXyXyXyXwX3.$X  :X              ",
"                                                                6XqXyXyXyXrX#XOX. [ X.n.V.[.        ",
"                                                              4X2X0XwXuXyXtX*X+X. : W.P k.v.p.T.    ",
"                                                              P.4.7X8X8XeXtX0X-., &X<.Z p.s.b.z.=.  ",
"                                                            XXc | G.<X5X9X9XeXeX7X'.c / A q.6.y.e.A.",
"                                                            V./ R U N $.~.$X'.^.*.x ! A e.9.y.6.a.i.",
"                                                            V.J S J H C C C V F H F F ~ A 9.6.t.L L.",
"                                                            T.C J i.D u.D K 8.0.8.r.d J d.S h.J =.  ",
"                                                              z D d J F H g.S e.s q.q.S G H I M.    ",
"                                                              ;XL 0.g.g.^ p z.K p.K k.~ O.I.%X      ",
"                                                            %X{.n.p ~ Y a T A d p 9 H.              ",
"                    .XE.L.D.S.D.U.(.;X                W.M 6 % & 3 Z z F.Y.Y.T..X>X                  ",
"            }.m.^ E e.e.e.d.e.e.S ~ ~ / Y.        &Xk 5 l 3 h x z 9 @ E.    -X                      ",
"        D./ ~ k.l.h.t.q.t.9.9.q.e.e.e.D H m.    W.& l 2 0 0 4 5 q Z @ G.    2  . .}.      <.        ",
"    C.g.p.u.p.0.0.0.8.8.w.w.w.w.D S A D f.7.C..X5 3 5 l 9 0 w 3 z ^ a /.  *.N N P {.    m U R !     ",
"  Z.e.i.q.a.8.8.0.0.D J J w.e.w.e.S L 0.6.f.W 3 5 5 l 5 3 9 q w 3 3 U e w {.    ,X;X  ).m Q I Q     ",
"z.h.l.l.8.8.8.e.D J J D D 8.0.8.s q.D D 9.G / M h B h 4 z 0 9 b 7 *.-X  %.Q XX,XY.o...G.      '.    ",
"h.l.l.r.8.S 9.s D e.e.D D D D 0.q.0.K D A j.P _ h h 4 0 # 0 9  ._         (.#. .<.-X                ",
";XR ~ g.S i.9.a.8.8.0.0.D D D K D S q.8.r.T b     y a x.M.*.7 M.M.x J.                              ",
"  |.N.I F h.8.s 9.8.8.8.D 0.D D K h.9.t.f i Y.    O.c.T     M.&.  Y.u ..                            ",
"      [.=.V H K e.e.G D J e.L J d.G s g.Z.    }.1 J.c.d.    U >.      %.U %X                        ",
"            {.C...~ R H E e.J A f a Y Z L.  {.x D.  c.x.L.x &.          U I.                        ",
"                      U r p p G   (.U.S.#.N  .U.    d.f q K.          E.U }.                        ",
"                      _ 2 q 1 f                   |.k.j._.            o.}                           ",
"                      5.* 6 M (               D.Q ! Z m.              t H.                          ",
"                        > = * ).        K.n x m | x q 9 7           E.n                             ",
"                          !.    v n _ ( &.E.    % & w w v *         >.} }.                          ",
"                              2.& @ X.w N.        $.# 6 * O @.    W.{ u w & 6 B ,.                  ",
"                                & c 4 2 3 G.          ~.2.Q.    ].O 8 g u u 7 k 6 )                 ",
"                                #.& j 5 u t                       ` t < < 8 # % v                   ",
"                                  2.# 2 w &                           ~.^.R.~.                      ",
"                                    -X .7 $.                                                        "
};
