/* XPM */
static char *Fruit_Food_Apple_Icon_Organic_Red_Apple_Natural_5902283_50x501675703715[] = {
/* columns rows colors chars-per-pixel */
"50 50 110 2 ",
"   c None",
".  c #000000",
"X  c #0B0400",
"o  c #1C0400",
"O  c #230100",
"+  c #380000",
"@  c #440000",
"#  c #4F0000",
"$  c #4A0E00",
"%  c #530000",
"&  c #610000",
"*  c #6C0000",
"=  c #6C0900",
"-  c #740000",
";  c #7D0000",
":  c #661E00",
">  c #691F00",
",  c #751000",
"<  c #562300",
"1  c #5C2400",
"2  c #4F3306",
"3  c #602700",
"4  c #622900",
"5  c #6B2B00",
"6  c #742D00",
"7  c #7B3100",
"8  c #395E16",
"9  c #2C781F",
"0  c #217721",
"q  c #217A21",
"w  c #435D14",
"e  c #6A4A0B",
"r  c #486516",
"t  c #4E701F",
"y  c #5D701F",
"u  c #830100",
"i  c #9C0000",
"p  c #8B1F00",
"a  c #A00000",
"s  c #AC0100",
"d  c #B40303",
"f  c #BB0201",
"g  c #AB1B09",
"h  c #B01000",
"j  c #B71E09",
"k  c #8F2C00",
"l  c #813300",
"z  c #C10100",
"x  c #CB0000",
"c  c #D20000",
"v  c #DB0100",
"b  c #D01100",
"n  c #D21311",
"m  c #DF1313",
"M  c #E40000",
"N  c #EC0000",
"B  c #F30000",
"V  c #FF0000",
"C  c #FF0C0C",
"Z  c #E01414",
"A  c #FF1313",
"S  c #F11F1F",
"D  c #FF1A1A",
"F  c #EA1F20",
"G  c #FF2424",
"H  c #FE2B2B",
"J  c #FF3333",
"K  c #FF3B3B",
"L  c #FF4444",
"P  c #FF4C4C",
"I  c #FF5454",
"U  c #FF5B5B",
"Y  c #FF6464",
"T  c #FF6C6C",
"R  c #FF7373",
"E  c #FF7C7C",
"W  c #1F8124",
"Q  c #248324",
"!  c #268C26",
"~  c #2B8825",
"^  c #388021",
"/  c #279429",
"(  c #299429",
")  c #2B9C2B",
"_  c #27A12C",
"`  c #2DA42D",
"'  c #2FAA2F",
"]  c #30AE30",
"[  c #32B332",
"{  c #34BB34",
"}  c #36C236",
"|  c #37C937",
" . c #38CC38",
".. c #3BD53B",
"X. c #3CD83C",
"o. c #FF8484",
"O. c #FF8C8C",
"+. c #FF9696",
"@. c #FF9B9B",
"#. c #FFA3A3",
"$. c #FFAEAE",
"%. c #FFBBBB",
"&. c #FFC7C7",
"*. c #FFCFCF",
"=. c #FFD1D1",
"-. c #FFDBDB",
";. c #FFE2E2",
":. c #FFECEC",
">. c #FFF5F5",
",. c #FFFDFD",
/* pixels */
"                                                                               . . .|  . . ...      ",
"                                                                        } { [ [ [ [ [ { { | |  . ...",
"                                                                    { ' ` ` ` ] ] [ [ { { ] ` ] ....",
"                              ....                          <     ' ) ) ` ` ` ' ] ] ' ) ! Q q } X.  ",
"                               .' ` [ |                 l 4 <   ) ( ) ) ) ` ` ` / ! q 0 0 q ] ..    ",
"                              | ] ! 0 ! '             l 7 < w ( / / ( ) ( / Q q 0 0 0 0 0 ' ..      ",
"                               .{ ' Q 0 0 /         l l 5 2 ~ ! / ! ! ! q 0 0 0 0 0 0 Q [ ..        ",
"                               .{ [ ` ! 0 0 !       l 6 1 8 ! ! q 0 9 0 q 0 0 0 0 0 ) { X.          ",
"                                } ] ' ) Q 0 0 /     l 5 < 9 Q 0 0 0 0 0 0 q q ! ) { ..              ",
"                                  { ` ` ) Q 0 Q   l 7 1           / ( ( ) ' [                       ",
"                                    [ ) ) / Q 0 ^ l 6 <                                             ",
"                V C V V V V             _ / / W r l 1           V V V V V V V                       ",
"          V G I R R Y P H V V V V V V       y t e 6 5 v V V V V V V V V V V V V V                   ",
"        V I $.;.%.O.o.E R I A V V V V V V V V B k 3 h V V N v M V V V V V V V V V V V               ",
"      V I &.,.,.%.o.E R T Y K V V B v x v M B b 6 : f z d d m H A V V V V V V V V V V V             ",
"    V J %.,.,.-.O.E R T Y U J V V V V m d a i p 3 , a d m H K J V V V V V V V V V V V A             ",
"    C o.:.,.;.+.E R Y Y U P A V V V V D H F n j g n G H K K K A V V V V V V V V V V V A H           ",
"  V K &.,.:.@.E R T Y U I H V V V V V V D H H G G H H H H G C V V V V V V V V V V V V V K           ",
"  V R :.,.$.E E T Y U I J V V V V V V V V C A C A C A C V V V V V V V V V V V V V V V V H K         ",
"  D #.,.*.o.R T Y U I K C V V V V V V V V V V V V V V V V V V V V V V V V V V V V V V V A L         ",
"V J &.>.@.R T Y U I K C V V V V V V V V V V V V V V V V V V V V V V V V V V V V V V V V V L         ",
"V L -.*.R R Y U I L C V V V V V V V V V V V V V V V V V V V V V V V V V V V V V V V V V V K         ",
"V I =.@.T Y U I L D V V V V V V V V V V V V V V V V V V V V V V V V V V V V V V V V V V V H G       ",
"V U o.R Y U I P H V V V V V V V V V V V V V V V V V V V V V V V V V V V V V V V V V V V V D D       ",
"V U T Y U I P K C V V V V V V V V V V V V V V V V V V V V V V V V V V V V V V V V V V V V V C       ",
"C I T U I P L H V V V V V V V V V V V V V V V V V V V V V V V V V V V V V V V V V V V V V V V       ",
"V P U I P L K A V V V V V V V V V V V V V V V V V V V V V V V V V V V V V V V V V V V V V V B       ",
"V L U P L K J V V V V V V V V V V V V V V V V V V V V V V V V V V V V V V V V V V V V V V N         ",
"V H I L K J G V V V V V V V V V V V V V V V V V V V V V V V V V V V V V V V V V V V V V N x         ",
"  G L K J H D V V V V V V V V V V V V V V V V V V V V V V V V V V V V V V V V V V V V N c x         ",
"  A K J H G D V V V V V V V V V V V V V V V V V V V V V V V V V V V V V V V V V V V N x x x         ",
"  V G H G D A V V V V V V V V V V V V V V V V V V V V V V V V V V V V V V V V V V N x x x x         ",
"  V A G D A C V V V V V V V V V V V V V V V V V V V V V V V V V V V V V V V V V M x x x x           ",
"    V A A A A V V V V V V V V V V V V V V V V V V V V V V V V V V V V V V V V v x x x x x           ",
"    V V C C V V V V V V V V V V V V V V V V V V V V V V V V V V V V V V V V v x x x x x             ",
"      V V V V V V V V V V V V V V V V V V V V V V V V V V V V V V V V V B v x x x x x x             ",
"      V V V V V V V V V V V V V V V V V V V V V V V V V V V V V V V V N c x x x x x x x             ",
"        V V V V V V V V V V V V V V V V V V V V V V V V V V V V V V N x x x x x x x x               ",
"        V V V V V V V V V V V V V V V V V V V V V V V V V V V V B v x x x x x x x x                 ",
"          V V V V V V V V V V V V V V V V V V V V V V V V V V N c x x x x x x x x x                 ",
"            N B V V V V V V V V V V V V V V V V V V V V V B c x x x x x x x x x x                   ",
"              x c c M B B V V V V V V V V V V V V V N v c x x x x x x x x x x x                     ",
"              x x x x x c c v N N B B B B B N v c x x x x x x x x x x x x x x                       ",
"                x x x x x x x x x x x x x x x x x x x x x x x x x x x x x x                         ",
"                    x x x x x x x x x x x x x x x x x x x x x x x x x x x                           ",
"                      x x x x x x x x x x x x z x x x x x x x x x x x                               ",
"                        u s z x x x x x x s = $ u f x x x x x x f i                                 ",
"                          X + & ; u u = @ o X X X O % - u u - # o                                   ",
"                                . . . . . . . X . . . . . .                                         ",
"                                                                                                    "
};
