/* XPM */
static char *hqdefault_1_50x501675704258[] = {
/* columns rows colors chars-per-pixel */
"50 50 254 2 ",
"   c #010102",
".  c #0B0102",
"X  c #020A02",
"o  c #02020B",
"O  c #0B030A",
"+  c #070A08",
"@  c #170606",
"#  c #1A1703",
"$  c #030212",
"%  c #0A0717",
"&  c #150A15",
"*  c #081416",
"=  c #17151A",
"-  c #061500",
";  c #240707",
":  c #271800",
">  c #270916",
",  c #27141A",
"<  c #381A19",
"1  c #380B0C",
"2  c #19290F",
"3  c #292519",
"4  c #312E0A",
"5  c #060724",
"6  c #1B1726",
"7  c #1C1836",
"8  c #130E2F",
"9  c #251727",
"0  c #361725",
"q  c #251A38",
"w  c #1C2630",
"e  c #28252A",
"r  c #37272A",
"t  c #272638",
"y  c #382934",
"u  c #313732",
"i  c #560515",
"p  c #511415",
"a  c #650A1B",
"s  c #503013",
"d  c #461D27",
"f  c #71112E",
"g  c #452934",
"h  c #562C38",
"j  c #49353B",
"k  c #54383A",
"l  c #4D2529",
"z  c #763B3B",
"x  c #693133",
"c  c #6B201D",
"v  c #34442F",
"b  c #524914",
"n  c #685B11",
"m  c #544C32",
"M  c #6D5338",
"N  c #736537",
"B  c #52603D",
"V  c #251A46",
"C  c #2B2646",
"Z  c #332B48",
"A  c #393445",
"S  c #352C55",
"D  c #3A3359",
"F  c #2D2C54",
"G  c #192045",
"H  c #463849",
"J  c #553846",
"K  c #423854",
"L  c #53395C",
"P  c #703749",
"I  c #463A70",
"U  c #3D434E",
"Y  c #47454A",
"T  c #574549",
"R  c #484756",
"E  c #574857",
"W  c #575957",
"Q  c #53564A",
"!  c #68474A",
"~  c #794647",
"^  c #674C59",
"/  c #6A555A",
"(  c #785758",
")  c #744C53",
"_  c #5A6753",
"`  c #77645A",
"'  c #68714B",
"]  c #585668",
"[  c #5A4B6A",
"{  c #755864",
"}  c #675675",
"|  c #775A73",
" . c #68516B",
".. c #5B6866",
"X. c #676766",
"o. c #756668",
"O. c #796878",
"+. c #6C7578",
"@. c #787776",
"#. c #6D6F6F",
"$. c #881731",
"%. c #863437",
"&. c #85733C",
"*. c #9E2B43",
"=. c #864946",
"-. c #885557",
";. c #8D5451",
":. c #A45759",
">. c #89665B",
",. c #906A4E",
"<. c #8B5B69",
"1. c #B94E6D",
"2. c #8A6667",
"3. c #986969",
"4. c #876D75",
"5. c #877577",
"6. c #96767B",
"7. c #9A6E70",
"8. c #A66967",
"9. c #A46C77",
"0. c #A6767A",
"q. c #B97877",
"w. c #B3716B",
"e. c #C47777",
"r. c #D77C73",
"t. c #E77F71",
"y. c #C04E65",
"u. c #77846A",
"i. c #A18E38",
"p. c #96894D",
"a. c #A99356",
"s. c #B9A65B",
"d. c #918D75",
"f. c #B79A67",
"g. c #B58778",
"h. c #AE8F72",
"j. c #B4A969",
"k. c #C78579",
"l. c #CE9076",
"z. c #E7936F",
"x. c #CCB268",
"c. c #D0AE75",
"v. c #D5A95F",
"b. c #D4C475",
"n. c #D7C65C",
"m. c #575188",
"M. c #65568A",
"N. c #725C93",
"B. c #73708B",
"V. c #7666A7",
"C. c #865C84",
"Z. c #867887",
"A. c #9A7985",
"S. c #8F6E91",
"D. c #A47786",
"F. c #B27D8C",
"G. c #997BA6",
"H. c #B37CA4",
"J. c #E07F86",
"K. c #7380AC",
"L. c #998889",
"P. c #888896",
"I. c #978A99",
"U. c #989697",
"Y. c #8B8A8C",
"T. c #A68989",
"R. c #B98789",
"E. c #A49389",
"W. c #B89888",
"Q. c #A58B95",
"!. c #B98C95",
"~. c #A89599",
"^. c #B79698",
"/. c #B4AA94",
"(. c #9D94A5",
"). c #938BA9",
"_. c #BB8AA4",
"`. c #AA95A5",
"'. c #B899A6",
"]. c #AA9FB5",
"[. c #B08EAA",
"{. c #AAA8A9",
"}. c #BBA5A6",
"|. c #B7AAB7",
" X c #B1B0B5",
".X c #9FA1AD",
"XX c #C78988",
"oX c #D78B85",
"OX c #C79588",
"+X c #D5948A",
"@X c #CB8E92",
"#X c #D58C91",
"$X c #C89698",
"%X c #D89495",
"&X c #E69A98",
"*X c #F39494",
"=X c #C9A988",
"-X c #C6B588",
";X c #CAB898",
":X c #D3AB91",
">X c #EEAB93",
",X c #CA97A3",
"<X c #D59DA6",
"1X c #C790B0",
"2X c #E79BA2",
"3X c #C6A9A7",
"4X c #D5A4A8",
"5X c #C6ADB6",
"6X c #DAA7B3",
"7X c #C5B7B9",
"8X c #D7B7B9",
"9X c #D1B5A9",
"0X c #E7A7AB",
"qX c #E5ABB7",
"wX c #E6B5BB",
"eX c #F7B7B9",
"rX c #F2AEAA",
"tX c #B8C492",
"yX c #D8C78D",
"uX c #E7CF8F",
"iX c #D9C4B8",
"pX c #D3C2B2",
"aX c #E7CBBA",
"sX c #F9F0B3",
"dX c #FEEB9F",
"fX c #A595C1",
"gX c #B7ACC9",
"hX c #BBB7C6",
"jX c #A9A9C5",
"kX c #CBB9C6",
"lX c #D7B8C5",
"zX c #CDB3D0",
"xX c #ECBAC6",
"cX c #C8C4C6",
"vX c #D8C6C9",
"bX c #D8C9D8",
"nX c #D8D4D8",
"mX c #C6D2D9",
"MX c #E8CAC8",
"NX c #F8C7CC",
"BX c #E6C7D5",
"VX c #F9C8D4",
"CX c #E8D6D9",
"ZX c #F8D9DA",
"AX c #E7D3CB",
"SX c #FEF9CA",
"DX c #F9EBD7",
"FX c #D8D1E5",
"GX c #E8CDE5",
"HX c #E9D7E8",
"JX c #FAD8E5",
"KX c #F0DAF5",
"LX c #F8F8FC",
"PX c #F3E5ED",
/* pixels */
".       X X   o     . . .   o o o o .         o $ o o                                       .       ",
"  .           o       .     o o o             o $ o                 o                               ",
"            + o   X X           o             o o o                 o                       . o o   ",
"            o o   X                                     X                                           ",
"X X     O O % o   X o o X   . o + + X       .     .   .   . .   o o .   o       o   X   o + o o     ",
"X X     . . O . . . o o   . . O           . O O . . . . . . . . O . .   . o o .   X     o   . . . . ",
"tXtX/.pX/.d.T.E.E.E.Q.Q.E.T.E.T.~.Q.~.'.}.'.'.3X^.^.W.^.^.~.`.`.~.Q.T.E.E.Q.U.I.L.E.L.U.I.O.` d.o.` ",
"sXsXSXSXDXpXaXMXMXMXAXMXMXAXNXMXCXCXZXJXJXBXlX8XZXZXZXZXCXCXHXJXZXCXiXvXvXCXHXnXCXCXAXCXbX~.E.iXd.d.",
"b.sXsXSXaX;XpX8XaXwX8XaXlXBXlXiXvX7XZXvX^ > 0 @ r L.CXCXHXPXHXnXnXCXvXnXnXnXnXnXmX.X XnXmXhXhXiX7X7X",
"dXsXsXSXsX;XiXAXxXMXaXwXVXAXvXMXAXDXZXj > { 4.2.k @ L.Z.K.d.B.u.@.d.@.X.X.X._ .._ U u .._ Q _ _ / Q ",
"c.c.uXsXsX;XpXpXaXaX9X:XiXaX8X8XAXMXz J 5XVXVXNXVX_.o.J . . - X X - u U 2 3 v 2 v * X 2 v 2 u u 2 4 ",
"c.j.c.yX-XW.W./.^.}.^.:X/.h.E.3X^.~ <.JXJXwXqXqXVXJXxX{ & . .   2 4 B 3 3 v 2 _ v X - - u.2 ' # n s.",
"0.2.,.N ) / ! ! ^ ( -.d.g.,.J { ! -.JXNX%X<X<X0X6XxXJX'.; . : # n p.,.: N N   N B . b 4 &.n p.4 n n.",
"C.A.3.-.7.~.H.<.| { M ,.:Xw.-.9.! ^.xX8XaXNXZXxXxXJXJXLX< @ a.a.n s.x.s.n j.: &.a.n uXj.i.yXs.s.i.s.",
"C.G.H.S.D.zXzXS.C.D.q.l.uXoXe.2X7.5X8XMXqX$XXXqXxXxXwXPX`   j.b.uXx.b.uXdXyX: -Xa.c.uXj.f.uXx.b.n.s.",
"1XH.1X<X<X6X1XS.H.,X+XuXl.oXJ.*X!.6XBX( 1 1 ; ;.9.i ; ! >.  tXj.@ p.s.f.# # + # b a.# # b &.: : : 4 ",
"*X*X*X*X*X<X1X_.2X>Xz.z.z.oX*X2X$X9X$X! $Xq.~ =.;.x :.g.7.; # 3 # E.4 @ . . X X @ #     ` M . .     ",
"t.z.t.r.r.%X@X$X&X>Xz.z.>X2XJ.J.$X9X-.3.8.%.c 0.>Xx ;.8.,X@ +   9 {.@ ^ Q .   X . . X r ~.k . .   X ",
"oXoX2X2X$X6X^.h.l.c.>X4X1X,XH.:.F.VX9.;.z P ;.@XNX9.x l T.y v W @.Q.g D.0.7.~.o.! 5.L.^ T.7./ d.#.Q ",
"_.,X6XxXQ.7X^.W.c.+X3X[.} [ <.9.,XxXqX2X0X@Xq.%XeX<X0.qXPX5.Y @.Y.| 0 ) ) ) _ Z.3X! k J R.2.@ r 3 , ",
"jX).I.]..XhX}.=Xb.f.5.V.m.m.L 2.qXVXxX&X#X%X#X0XNXNX<X@XDX2.. . u U.[.L.T.4.U.U.~., . 9 T./   X . #.",
"jX). XjXjX|.;X=X=Xh.+.K.m.m.| T.R.xXrX%X#X2XrX#Xe.%XeXoXeX3.s m = cXKXPX7XvXLXcXu , & & j g = + & 5.",
"hX{.kX X{./.c.f.=XL..XmX).G.S.!.3.OXe.q.oX2X#Xf i c +X#Xw.XX3.2.R FXFXcXnXLXPXLX|.O.  = r y = * # = ",
"I.(.U.U.6.l.v.l.6.G.jXjXG.| { D.R.oXe.r.e.2X0Xq.8.e.rXXX9.4Xk ) Z.KX].mXLXnXW  XLXU.w * e e = = e 6 ",
"fXgXjXU.h.h.-Xh.#.+.] u 9 | S.1X$Xl.l.w.&XqXqXwX#XrXJX6XQ.lX( E H ).]..XLXP.w Y LX+.w * 6 H & = 6 6 ",
"mXKXhX X=Xc.-X/.tXK.B.#.5.|.zXH.T.XXk.:.#XeXqX<XR.R.wXxX_.|.L.J & C bX] mXmX- Y.hX= w * u e O e 9 6 ",
"mXCXpX=Xj.n.j.Y.u.u.d.L.{.hX5X[.A.^.@Xw.%X#X=.P =.z h D.8X7Xm ` A $ H y  XLXmXPXhXw = * e y y & @ j ",
" X XyXj.n.s.d.u.u.N #.U.(.P.S.L L [.@Xe.&X8.~ g.q.#Xq.9.8X9X~ :Xy P.| B.jXmXmXiX X#.e & ^ Z./ T T 4.",
"` ' &.,.s.N B u.u.d./.u...U Y G.K 4.,XJ.q.q.XX3.%.%.q.XXR.W.uX3., kX`.O.I.Y.> ( U.J g o.H 0 '.{ j < ",
"B b s ,.p.! B _ d.d.B =   w R A S J R.%X%X8.w.q.oXoXw.XX3.W.>Xs & K.O.Y y T h ~ A.d d '.{ g Q.4.^ r ",
"N ' a.z.g.6.Y.Z.Z.5.5.I.Z.O.] hX} g R.w.e.q.$X0XrXeX0X,X0 (./.< U ] +.R t ] -.<.1Xg , j j u # k >.3.",
";Xf.c.c.wXJXGXBXlXBXCXPXKX} `.PXA & R.=.z 0.%X$XOXoX%X<XL `.I.9 ] ] U.e + @.h i h 0 g m y O , k =.k.",
"a.h.:X,.7.xX8X8XkXlXbXbX[ } gX[.E @ 9.0.x M 8.3.-.-.-.4XJ q N.[ F A ].O.L 4.P f J H J P P > 0 ( ,.g.",
"~ h.W.,.h.MXvXvXvXCXHX .E Z.).S.E y P D.3.1 i p 1 1 <.4Xh t F M.A A [.PXQ.H.1.f 0 J 0 1 D.d y ` ! M ",
"< g.^.T.!.BXBXlXkXGXgXA Z.E 7 } E y 0 1 ) 8.~ M M 8.4X$Xy L 7 I t 9 g _.{ D.1.f h 4.0 0 ( g r Q & , ",
"@ 4.8X3X'.7XlXkXzXFXZ.D } D 6 = 8 C 0 @ d R.8.8.e.g.2X0.{ ] C .XR o O h x :.$.%.D.J J 0 O O @ & & t ",
"@ ! DX8X3XvXBXlXGXbXK V D D Z U C U A , > R.3.:.8.e.%X) > e ] P.e e 5.( f $.$.a 7.; 0 u r . o.E & H ",
"> e ZXAXiXAXAXvXGXfXZ S 7 7 8 % $ 8 R K d $Xg.e.l.+X$Xr , = $ 6 U. XCX2.a *.1.a ~ g < / Y.& @.O.0 E ",
"= & 7XiX3X}.}.'.bXG.5 8 8 $ o + $ % 7 E J <.g.:XoX>X3.; & % 9 R (.cXkX<.f *.y.$.z k / / {.9 / O.T h ",
"9 & ~.kX/.^.5XzXGXfXD V 5 8 $ % % * 5 $ % @ ; x +X4Xh @ 6 9 t A GXbXBX) a $.*.c p k ! ( Y.j `.4.^.<.",
"C % I.PX5XlXJXzXG.V.m.M.I S V V C 7 5 5 5 $ @ @ ) !., t q 8 S } H.S.S.) z i i p h 2.~ 2.J / A.J F.3.",
"q $ O.vX'.kXC.} S.N.V.G.m.I I V C C G G 7 7 6 = 0 ^ q S S I M.B.S.N.<.<.9.9.0.0.g.6.L.Q.6.Q.Q.D.A.< ",
"e O j @.j { ^  .N.I I I I I I S S S F F F F C C 9 Z K S S I m.M.N.).].|.].{.{.~.U.u.@.@.X.O.#.Y.H . ",
"= . r X.o.o.o.H S C V V F C C q C t G t 7 t w w A 5 q S V 8 V D Z R ] +...+.#.#.#...X...W Q Q X.= & ",
". O   . @ . O O o o o $ $ o   o o       o   o o .         O $ o $ o O o   -         . . . .     . o ",
"        . O       o           .     . .     X       . X X     + o . O O             . . . O . . .   ",
"+         O o             o           .     o $ o o . . .           .   X X X   o .   o o +     +   ",
"        o     o             o   o   . .   o o $ o   .   X   X                                       ",
"                                                                                                    ",
"                                                                                                    "
};
