/* XPM */
static char *kira22__1_1675780906[] = {
/* columns rows colors chars-per-pixel */
"50 50 98 2 ",
"   c None",
".  c #061715",
"X  c #0D1E1C",
"o  c #101F1F",
"O  c #0F201F",
"+  c #10201F",
"@  c #19201E",
"#  c #0F2120",
"$  c #132222",
"%  c #1B2327",
"&  c #172729",
"*  c #1E262A",
"=  c #1C2B2B",
"-  c #202727",
";  c #2D2625",
":  c #212B2E",
">  c #332727",
",  c #332D2D",
"<  c #293337",
"1  c #27343C",
"2  c #29343B",
"3  c #383536",
"4  c #373738",
"5  c #3A3B3D",
"6  c #6B2A1E",
"7  c #492823",
"8  c #452B28",
"9  c #562C25",
"0  c #5D2D25",
"q  c #532E29",
"w  c #692D26",
"e  c #742D23",
"r  c #7D2F25",
"t  c #7E3027",
"y  c #7F3229",
"u  c #293740",
"i  c #2D3A43",
"p  c #3D3E40",
"a  c #364245",
"s  c #3B4346",
"d  c #34434D",
"f  c #3E464A",
"g  c #374849",
"h  c #3A4B4B",
"j  c #364651",
"k  c #374853",
"l  c #394954",
"z  c #3F4F59",
"x  c #504A46",
"c  c #455357",
"v  c #4A5456",
"b  c #545756",
"n  c #73504C",
"m  c #465761",
"M  c #546265",
"N  c #5C696C",
"B  c #5C6C72",
"V  c #616260",
"C  c #606B6C",
"Z  c #626F71",
"A  c #617173",
"S  c #6C7271",
"D  c #667579",
"F  c #6C7A7C",
"G  c #823027",
"H  c #85342B",
"J  c #8A332A",
"K  c #853A32",
"L  c #8A6F6D",
"P  c #887F7F",
"I  c #6D7D82",
"U  c #717F82",
"Y  c #738284",
"T  c #76878C",
"R  c #76888E",
"E  c #7B8B8E",
"W  c #7C8D92",
"Q  c #7F9197",
"!  c #808F90",
"~  c #869596",
"^  c #85969A",
"/  c #8A9B9E",
"(  c #969C9F",
")  c #8C9DA0",
"_  c #90A1A4",
"`  c #94A6A9",
"'  c #97A8AA",
"]  c #9AABAD",
"[  c #9CAFB4",
"{  c #9EB1B5",
"}  c #A3B7BA",
"|  c #A7BBBE",
" . c #A8BBBF",
".. c #A9BDC1",
"X. c #AEC3C6",
"o. c #B3C6CA",
"O. c #B5CACE",
"+. c #B7CCD0",
/* pixels */
"                                                                                                    ",
"                                                                                                    ",
"                                                                                                    ",
"                                                                                                    ",
"                                                                                                    ",
"                                                                                                    ",
"                                                                                                    ",
"                                                  X X                           O X                 ",
"                                              o +               X       X X X .                     ",
"                                    o X X o $ X             X X X X X X X X X                       ",
"                                  o + X o + $ o X X     X X X o X X X X X . O O                     ",
"                                X $ o $ o X +         X O O X X X X X X X X O . X X                 ",
"                      2 i d     o $ $ + + X         X O o O O X X X X X                             ",
"                    2 i d d 2 1     o X             X X X X X X X X                                 ",
"                    i d l j i j     o                 X X X                                         ",
"                % % i l l l l l d 2 $                 X X                                           ",
"                * - i j j k k j j d u                 X X                                           ",
"                * * 1 j j d j j j k d u               X                                             ",
"                * * : d j d j j j d j d               X                                             ",
"                * * % 1 d j l m k d d j i             X                                             ",
"                * : M a u l ~ ..^ z d d 2           X                                               ",
"                * f ..) c W o.+.+.R d d :                                                           ",
"                % M o.+...o.o.o.+...B D 2         X                                                 ",
"                * N o.X.o.o.X.~ Y / ) B       $ X X                                                 ",
"                v A F V ' O.} b x W E g = # O O X o o                                               ",
"                    C S ' | [ ] ' { Y Y E = . X X o X                                               ",
"                    B } ..} | O.{ I Y ~ Y # X X X X X                                               ",
"                      N E ^ T C p s A E g O O X X X                                                 ",
"                        2 , , > ; s h = O X # $ # $                                                 ",
"                        p 4 3 5 f F g . O # &   & $ $                                               ",
"                          M S Y ` ( ,     $       = = $                                             ",
"                            n ! L K H H @ $     X O X O %                                           ",
"                        6 G J H J J J 0 -       O X X O $                                           ",
"                        6 J J J J J 0 8         O X X +                                             ",
"                        6 J J J y 9 q y         $     $                                             ",
"                          r J w ; q H G       $       $                                             ",
"                          6 G 9 7 t G         $       &                                             ",
"                              e r e           $       $                                             ",
"                                                        $                                           ",
"                                                                                                    ",
"                                                                                                    ",
"                                                                                                    ",
"                                                                                                    ",
"                                                                                                    ",
"                                                                                                    ",
"                                                                                                    ",
"                                                                                                    ",
"                                                                                                    ",
"                                                                                                    ",
"                                                                                                    "
};
