/* XPM */
static char *cuphead_animation_video_game_cartoon_png_favpng_5LEBTFsnGUP8k2qTeTpe030Fm_removebg_preview__1_1675773997[] = {
/* columns rows colors chars-per-pixel */
"50 50 168 2 ",
"   c None",
".  c #010101",
"X  c #0C0403",
"o  c #0C0907",
"O  c #0D0C0B",
"+  c #130303",
"@  c #1D0606",
"#  c #110D07",
"$  c #130E0C",
"%  c #16120B",
"&  c #19140C",
"*  c #1F180F",
"=  c #0F0F10",
"-  c #121213",
";  c #1F1212",
":  c #1B1B1B",
">  c #220404",
",  c #2D0505",
"<  c #270A0A",
"1  c #2C0C0C",
"2  c #350404",
"3  c #3D0808",
"4  c #221A0F",
"5  c #251D12",
"6  c #261818",
"7  c #251616",
"8  c #2C2213",
"9  c #332615",
"0  c #352816",
"q  c #3C2D18",
"w  c #3B2C17",
"e  c #252424",
"r  c #2C2B2C",
"t  c #332F2A",
"y  c #322526",
"u  c #343434",
"i  c #3B3B3B",
"p  c #450404",
"a  c #4B0607",
"s  c #4B090A",
"d  c #550808",
"f  c #5C0B0B",
"g  c #560505",
"h  c #401C1D",
"j  c #6C0405",
"k  c #660708",
"l  c #6B0708",
"z  c #6E0909",
"x  c #610506",
"c  c #7B0405",
"v  c #750808",
"b  c #7D0A0A",
"n  c #43321B",
"m  c #48361C",
"M  c #4D3A1E",
"N  c #543E1F",
"B  c #442021",
"V  c #4D2829",
"C  c #442E2E",
"Z  c #5F2D2D",
"A  c #453723",
"S  c #4D3B21",
"D  c #483C2B",
"F  c #553F20",
"G  c #453637",
"H  c #4E3E3E",
"J  c #423B31",
"K  c #602D2D",
"L  c #6D3D3D",
"P  c #7F3536",
"I  c #564124",
"U  c #5D4523",
"Y  c #41403D",
"T  c #654B26",
"R  c #694E26",
"E  c #694F29",
"W  c #6E5127",
"Q  c #6D512A",
"!  c #72542A",
"~  c #785729",
"^  c #77582B",
"/  c #7B5A2B",
"(  c #725226",
")  c #635033",
"_  c #62523C",
"`  c #7C5E31",
"'  c #444444",
"]  c #4B4B4B",
"[  c #535353",
"{  c #595454",
"}  c #555858",
"|  c #5C5C5C",
" . c #634141",
".. c #625646",
"X. c #6D665B",
"o. c #7B6C55",
"O. c #646464",
"+. c #6B6B6B",
"@. c #716F6E",
"#. c #6F7070",
"$. c #747474",
"%. c #7C7C7C",
"&. c #840405",
"*. c #8B0607",
"=. c #8D0E0E",
"-. c #940304",
";. c #9A0304",
":. c #940A0B",
">. c #8D1C1C",
",. c #A40202",
"<. c #AB0202",
"1. c #B30101",
"2. c #932A2A",
"3. c #8B3131",
"4. c #863F3F",
"5. c #973232",
"6. c #9D393A",
"7. c #815F2D",
"8. c #86622E",
"9. c #89632E",
"0. c #984949",
"q. c #9B4242",
"w. c #9F5D5D",
"e. c #866263",
"r. c #867A69",
"t. c #8C7E7E",
"y. c #8A7475",
"u. c #977A7A",
"i. c #9A7E7E",
"p. c #947676",
"a. c #A26A6A",
"s. c #A57071",
"d. c #A17F7F",
"f. c #A17F80",
"g. c #838383",
"h. c #8D8D8D",
"j. c #908F8F",
"k. c #9A8989",
"l. c #908F90",
"z. c #8F9191",
"x. c #939393",
"c. c #9B9B9B",
"v. c #AE8585",
"b. c #B18E8E",
"n. c #A39E96",
"m. c #A3A3A4",
"M. c #ABACAC",
"N. c #B3B3B3",
"B. c #B7B8B7",
"V. c #BCBCBC",
"C. c #C2A6A7",
"Z. c #C7BBBB",
"A. c #BDC0C0",
"S. c #C3C3C3",
"D. c #C8C5C5",
"F. c #CCCCCC",
"G. c #D2CBCA",
"H. c #CECFD0",
"J. c #D4D4D4",
"K. c #DBD7D7",
"L. c #D7D9D8",
"P. c #D9D9D9",
"I. c #E4E4E4",
"U. c #E6E8E8",
"Y. c #ECECEC",
"T. c #F5F5F5",
"R. c #F7F9F9",
"E. c #F9F9F9",
/* pixels */
"                                                                                                    ",
"                                  r :                                                               ",
"                                u B.h.x.+.<                                                         ",
"                                $.P.N.P.Z.=.c 3                                                     ",
"                              . g.P.m.U.b.,.1.2.x.u                                                 ",
"                                [ N.N.K.6.1.<.s.R.M.u                                               ",
"                                = r | H k *.w.I.I.B.F.Y                                             ",
"                                          $ #.B.Z.U.I.4.,                                           ",
"                                              u N.M.q.<.&.+           %.                            ",
"                                                7 *.1.,.5.{ .       O.B.                            ",
"                                                  > P v.P.H.e - ] D.[ c.] r r : : =                 ",
"                                                i } [ P.G.a.f i %.F.x.m.g.h.g.g.%.%.%.O.[ e         ",
"                                              i A.P.+.Z >.;.;.< } c.A.D.g.x.c.c.M.M.m.h.x.V.'       ",
"                                            : $.c.B.N.t.u.f.t.f.c.c.M.M.x.N.B.N.B.B.N.m.m.M.| o     ",
"                                          : ] c.M.c.x.c.z.h.h.z.l.z.x.x.x.l.c.m.m.c.c.c.m.V.V.r     ",
"                                        r c.F.A.F.P.P.P.J.H.H.F.F.S.A.Z.S.x.B.J.H.P.U.Y.T.I.[ -     ",
"                                      O l.P.P.L.L.L.K.L.L.L.K.L.P.P.P.P.P.M.K.T.T.T.T.T.R.N.. .     ",
"                                      r S.P.N.x.J.K.L.L.K.L.K.L.L.K.L.L.P.M.H.E.T.T.T.T.R.N.O .     ",
"                                      u F.P.O.$.P.L.L.K.P.K.L.L.L.L.K.L.P.V.S.T.T.T.T.T.T.S.e .     ",
"                                      e A.P.#.] L.L.L.L.L.L.L.K.K.L.L.P.P.D.M.T.T.T.T.T.T.h.. .     ",
"                                      - m.P.V.] m.J.L.K.L.L.L.K.L.L.P.P.L.L.m.P.E.T.T.T.E.M.6 g     ",
"                                      . r ] | +.l.A.P.P.L.K.L.P.P.L.B.A.P.P.A.x.Y.T.T.T.T.P.L c     ",
"                                  . . . . . . o #.J.F.J.K.P.L.L.P.x.: e %.F.P.B.M.D.J.H.A.c.e       ",
"                                . . . . - O . . X | l.L.L.K.P.K.P.%.. X X u %.N.D.A.B.B.N.| {       ",
"                              u $.g.+.i N.Z.| . . . e M.P.L.L.L.P.V. .v j 2 X O u O.%.O.O.x.N.e     ",
"                            : g.S.D.D.+.B.E.Y.{ . . . : g.F.P.L.P.P.D.f.0.3.Z i ' : #.x.B.F.V.N.i   ",
"                          O.S.P.H.H.P.S.h.I.E.c.. . . . . i h.Z.H.P.P.P.L.D.N.x.O.l.Y.R.c.V.T.T.$.  ",
"                    # % u P.R.I.V.V.F.R.V.h.U.m.. . . . . . o e ] O.%.g.$.+.+.i m.I.D.Y.V.L.R.J.@.= ",
"                o 8 S w O.T.T.T.Y.T.T.T.R.g.| C X . . . . . . . . r x.m.N.D.I.%.g.U.D.n.x.J.B.B.H.r ",
"              % n R / T | U.T.T.T.T.T.T.R.+.p ;.-.f @ . . . . . . : | x.M.m.c.] N.N.T.U.M.m.P.R.A.e ",
"            5 S R 8.9.T +.m.F.R.T.T.T.T.P.G -.1.1.1.;.s X . . . . . . . . . . . $.S.M.T.P.B.K.M.[   ",
"          5 I Q 8.9.9.n m.U.I.T.T.T.T.Y.| d 1.1.1.1.1.<.b @ . . . . . . . . . . - g.g.+.S.N.+.:     ",
"    8 n F I ! 9.9.9.9.U G F.T.I.c.I.T.A.B ;.1.1.1.1.1.1.1.*.>                           e r         ",
"o n T E Q ^ 9.9.8.9.9.8.A t O.+.$.$.@.y j 1.1.1.1.1.1.1.1.1.&.                                      ",
"% I ! 9.9.9.9.9.9.9.9.8.T ( ..V.P.F.y.x j 1.1.1.1.1.1.1.1.1.,.,     5 N U w %                       ",
"O S 9.9.9.9.9.9.9.9.9.! q T ) x.P.P.i.;.a ;.1.1.1.1.1.1.1.1.,.,   9 ~ 9.9.8.U M                     ",
"  & U 7.9.9.9./ W N 0 *   # # - O.M.e.,.b p ;.1.1.1.1.1.1.1.&.+ 5 ~ 9.9.9.9.! R *                   ",
"    # 8 9 9 8 5 %                 : 6 p a + , l ;.<.1.1.1.1.l   m 9.9.9.9.9.~ T 4                   ",
"                                                < b 1.1.,.:.l X I 9.9.9.9.9./ T 4                   ",
"                                                  g 1.2.f.k.h . m 9.9.9.8.9./ T 5                   ",
"                                                  2 z p.P.P.h.- & ! 9.9.9.9.~ T 4                   ",
"                                                    > V B.L.L.O.# 0 U 8.9.9.! W %                   ",
"                                                        +.P.P.A._ W S / 9.9.Q U o                   ",
"                                                        e B.P.H.o.~ Q 9.9./ Q n                     ",
"                                                        # X.n.r.` W ^ 9.8.Q T %                     ",
"                                                        q 7./ 7.Q Q 8.8.( Q 9                       ",
"                                                        & I Q Q ! 8.9.~ Q n                         ",
"                      h.x.x.x.                h.x.x.l.c.O.A 8.9.9.9.~ E S i                         ",
"                  x.x.x.x.x.x.x.x.x.x.x.x.x.x.x.x.x.x.x.h.J T ~ ! I S D | j.x.x.x.x.x.              ",
"                    x.x.x.x.x.l.x.x.x.x.x.x.x.x.x.x.x.      o * & O : +.x.x.x.j.                    "
};
