/* XPM */
static char *devil__1_1675774009[] = {
/* columns rows colors chars-per-pixel */
"50 50 139 2 ",
"   c None",
".  c #040504",
"X  c #0B0B0B",
"o  c #0E0B10",
"O  c #131313",
"+  c #1E1E1E",
"@  c #1C1521",
"#  c #221729",
"$  c #251A2B",
"%  c #2B1D33",
"&  c #222322",
"*  c #372435",
"=  c #33203F",
"-  c #37323B",
";  c #3C3C3C",
":  c #463C12",
">  c #41351A",
",  c #4E3B35",
"<  c #55470F",
"1  c #57490E",
"2  c #5C4D0E",
"3  c #5F500E",
"4  c #574815",
"5  c #5B4D10",
"6  c #60500D",
"7  c #574326",
"8  c #6A5D26",
"9  c #644B37",
"0  c #716535",
"q  c #341F43",
"w  c #362341",
"e  c #3A2447",
"r  c #392943",
"t  c #3C234C",
"y  c #3E2250",
"u  c #412C4D",
"i  c #422555",
"p  c #442855",
"a  c #46265A",
"s  c #49275F",
"d  c #4B2E5D",
"f  c #502E5B",
"g  c #463153",
"h  c #4C325B",
"j  c #4D2964",
"k  c #522B6B",
"l  c #533365",
"z  c #553A65",
"x  c #56336B",
"c  c #58366B",
"v  c #5A3A6C",
"b  c #562C71",
"n  c #582D74",
"m  c #5A3174",
"M  c #5E3D72",
"N  c #5E327A",
"B  c #623E76",
"V  c #61357D",
"C  c #633B7B",
"Z  c #464746",
"A  c #554C5A",
"S  c #545554",
"D  c #59525B",
"F  c #624741",
"G  c #65484D",
"H  c #65445C",
"J  c #746F58",
"K  c #584165",
"L  c #594962",
"P  c #604C6C",
"I  c #634070",
"U  c #65417B",
"Y  c #68437E",
"T  c #656365",
"R  c #6C6C6B",
"E  c #72716E",
"W  c #6F6A71",
"Q  c #727271",
"!  c #99916F",
"~  c #643781",
"^  c #663982",
"/  c #693C85",
"(  c #6D3F89",
")  c #6C4383",
"_  c #6F4E82",
"`  c #6F418B",
"'  c #734F87",
"]  c #71458A",
"[  c #744A8D",
"{  c #79548E",
"}  c #7C5C8F",
"|  c #754691",
" . c #774992",
".. c #7A4C95",
"X. c #7E4F9A",
"o. c #7B5193",
"O. c #7E5B93",
"+. c #7F509B",
"@. c #7E618E",
"#. c #804F9D",
"$. c #80509D",
"%. c #80648E",
"&. c #806D8C",
"*. c gray53",
"=. c #89808E",
"-. c gray55",
";. c #8E8493",
":. c #95869B",
">. c #9C969E",
",. c #9C9C9C",
"<. c #A5A39F",
"1. c #B1AD9D",
"2. c #A199A2",
"3. c #A69CAA",
"4. c #AAA7A2",
"5. c #ABABAB",
"6. c #B2ADB1",
"7. c #B3B3B3",
"8. c #B9B7B2",
"9. c #BDBBB5",
"0. c #B9B1BE",
"q. c gray73",
"w. c #C1BFBE",
"e. c #C3C1BC",
"r. c #C2BCC4",
"t. c #C4C4C3",
"y. c #CCCBC6",
"u. c #CDCCCA",
"i. c #D0CECA",
"p. c #D1D0CC",
"a. c #D2D2D2",
"s. c #DCDBDA",
"d. c #E2DFDA",
"f. c #E4E4E4",
"g. c #EBE9E5",
"h. c #ECECEC",
"j. c #F1F1EF",
"k. c #F3F3F3",
"l. c #FBFBFB",
/* pixels */
"                                                                                                    ",
"                                                                                                    ",
"                                                                                                    ",
"                                                                                                    ",
"                                                                                                    ",
"                                                                                                    ",
"                                                                                                    ",
"                                                                                                    ",
"                                          U [ X.X.X. .] U                                           ",
"                                        ) +.$.$.+.+.X.~ V l                                         ",
"                                      Y $.$.$.$.$.$.X.V s                                           ",
"                                    z X.$.$.$.$.$.+. .N k                                           ",
"                                    ) $.{ } { ....^ N b n k                                         ",
"                                  z ..@.6.y.e.:.[ V b n n n j                                       ",
"                                  ) { t.j.j.j.s.3.' V n n n b p                                     ",
"                                  ] 3.l.l.l.l.k.f.2.Y N n n n k                                     ",
"                                M B T q.j.k.l.f.5.Z & C ~ n n b                                     ",
"                                Y u . O r q.l.<.o . X L ..^ n n a                                   ",
"                                M A ; . O t.s.7.+ O R t.@.| n n s                                   ",
"                                c - 6.*.5.s.Q a.u.t.k.s.D ) N n a                                   ",
"                                z # S t.s.j.h.k.f.5.-.Z @ ) N k t                                   ",
"                                  u @ O & Q 5.,.S X . o z / j e                                     ",
"                                    u e # o X X . o % c B p                                         ",
"                                      r l h % $ w h l p                                             ",
"                                      I ..) B B ) ] ^ b t                                           ",
"                                  p ) $.$.$.$.$.$.$...` m w                                         ",
"                                r ) $.$.Y Y $.+.$...[ +. .k                                         ",
"                                W L ..X.h h X.$.o.c M +./ k             J 0 5 :                     ",
"                                s.;.x M      .$.o.;.,.Y V q       5 2 6 8 ! 1.                      ",
"                                  L y     v X.+.o.r.s.z i * 3 3 3 1       f.l.q.                    ",
"                                        Y X.[ ) O.0.&.i j l >             8.g.t.                    ",
"                                      , G 9 7 I $.....)  .^ q             4.d.e.                    ",
"                                5 3 2 4 F H d l X.#. .$.$./ s               s.p.                    ",
"                    5 5 2 3 2 1         ) #.~ j ) X./ ..$.( b t             p.y.                    ",
"                    4                     [ ` j C $./ x B  .( n y           e.8.                    ",
"                                          c ` k v #...n w g B ) C x j t     9.<.                    ",
"                                            C s w ) #./ j       p h         4.                      ",
"                                            t       v Y C k i e             E                       ",
"                                                            t w                                     ",
"                                                                                                    ",
"                                                                                                    ",
"                                            X . . . X X     X X X o   X X X X X X                   ",
"                                                                                                    ",
"                                                                                                    ",
"                                                                                                    ",
"                                                                                                    ",
"                                                                                                    ",
"                                                                                                    ",
"                                                                                                    ",
"                                                                                                    "
};
