/* XPM */
static char *door__1_1675774033[] = {
/* columns rows colors chars-per-pixel */
"50 50 159 2 ",
"   c None",
".  c #661E08",
"X  c #6C240B",
"o  c #742509",
"O  c #772A0D",
"+  c #7B2C0C",
"@  c #7E300F",
"#  c #7C2F10",
"$  c #7D3214",
"%  c #763C28",
"&  c #793F2A",
"*  c #7D422A",
"=  c #7D4B2F",
"-  c #734731",
";  c #784E37",
":  c #714D3B",
">  c #6E523F",
",  c #7D5135",
"<  c #74533D",
"1  c #79523A",
"2  c #5E554E",
"3  c #5E5A53",
"4  c #585F5D",
"5  c #635044",
"6  c #6E5644",
"7  c #6B5A4B",
"8  c #735642",
"9  c #735846",
"0  c #625C53",
"q  c #6C5D50",
"w  c #69635B",
"e  c #7C6254",
"r  c #74655B",
"t  c #596362",
"y  c #5C6867",
"u  c #5E6B6C",
"i  c #676661",
"p  c #666965",
"a  c #656E6D",
"s  c #6E736F",
"d  c #7F7265",
"f  c #667373",
"g  c #697676",
"h  c #697778",
"j  c #6D7B7C",
"k  c #7D7973",
"l  c #7E7E79",
"z  c #802F0E",
"x  c #83320F",
"c  c #853511",
"v  c #893711",
"b  c #873814",
"n  c #8C3B14",
"m  c #843919",
"M  c #8D3E18",
"N  c #913E14",
"B  c #8C411C",
"V  c #944217",
"C  c #994516",
"Z  c #95441A",
"A  c #994619",
"S  c #91491E",
"D  c #9D4A1A",
"F  c #A24E1D",
"G  c #A5511E",
"H  c #A9541F",
"J  c #8D4525",
"K  c #8B4A25",
"L  c #85472D",
"P  c #854F2D",
"I  c #8A4E2B",
"U  c #814625",
"Y  c #934722",
"T  c #974C22",
"R  c #9D4F22",
"E  c #9F5222",
"W  c #9B572E",
"Q  c #804E30",
"!  c #825031",
"~  c #865539",
"^  c #8C5332",
"/  c #955332",
"(  c #995732",
")  c #9C5A33",
"_  c #925C3C",
"`  c #995D39",
"'  c #A45322",
"]  c #AB5521",
"[  c #AD5922",
"{  c #A45729",
"}  c #A5592A",
"|  c #AA5C2A",
" . c #B15C24",
".. c #A05D36",
"X. c #94623F",
"o. c #98613C",
"O. c #865E44",
"+. c #945F45",
"@. c #82614B",
"#. c #8C654B",
"$. c #956749",
"%. c #866751",
"&. c #8B6A55",
"*. c #8D6B5C",
"=. c #956A54",
"-. c #9A6D52",
";. c #92715E",
":. c #9C755C",
">. c #A27A5F",
",. c #80776C",
"<. c #917261",
"1. c #877A71",
"2. c #A07E68",
"3. c #81847F",
"4. c #727F81",
"5. c #748283",
"6. c #7A8585",
"7. c #7B8789",
"8. c #7D8A8B",
"9. c #838986",
"0. c #848E8D",
"q. c #968C86",
"w. c #89918F",
"e. c #838F90",
"r. c #869292",
"t. c #8A9494",
"y. c #8D9897",
"u. c #8E9A98",
"i. c #919C9B",
"p. c #A1968D",
"a. c #A49E99",
"s. c #95A09F",
"d. c #95A1A0",
"f. c #9AA4A4",
"g. c #9EA8A7",
"h. c #9EA9A9",
"j. c #A4ACAB",
"k. c #A9AFAE",
"l. c #A7B0AF",
"z. c #ABB0AF",
"x. c #A7B2B2",
"c. c #ACB3B3",
"v. c #AFB8B7",
"b. c #B1B6B6",
"n. c #B4BCBB",
"m. c #BBBDBC",
"M. c #C1BEB9",
"N. c #B7C0BF",
"B. c #BAC0BE",
"V. c #BBBFC0",
"C. c #BCC4C3",
"Z. c #BFC8C7",
"A. c #C1C7C7",
"S. c #C3CCCB",
"D. c #CCCFCE",
"F. c #C7D0CF",
"G. c #C8D1CF",
"H. c #CBD2D2",
"J. c #D1D4D3",
/* pixels */
"                                                                                                    ",
"                                                                                                    ",
"                                                                                                    ",
"                                                                                                    ",
"                                                                                                    ",
"                  A.F.F.F.F.G.F.G.H.G.H.H.H.H.H.H.H.                                                ",
"                  n.Z.S.S.S.S.S.A.S.A.Z.S.Z.S.S.G.S.F.S.G.G.G.G.G.H.H.H.H.H.H.F.                    ",
"                  n.Z.F.F.S.F.S.F.S.F.S.S.S.A.S.Z.Z.Z.Z.Z.Z.Z.Z.S.A.S.A.S.S.Z.Z.                    ",
"                  n.Z.A.S.F.S.F.S.F.S.C.C.F.S.F.G.F.F.F.S.S.S.Z.F.S.F.S.S.S.Z.C.                    ",
"                  n.A.Z.c.c.n.n.N.C.N.j.j.Z.S.A.S.S.S.F.S.G.S.C.S.F.S.F.F.F.S.C.                    ",
"                  N.S.C.f.y.r.0.r.t.u.y.y.d.g.g.h.j.x.x.v.v.v.v.N.C.C.C.Z.Z.F.C.                    ",
"                  x.Z.Z.f.7.f p a f g h j j j 5.5.7.7.8.8.r.r.y.u.i.s.f.f.C.S.N.                    ",
"                  j.n.C.f.f > K I P = - 1 < 9 7 q 0 w w p a s f g h j 5.r.n.S.n.                    ",
"                  A.Z.Z.g.f , C D D C v D C A A V c S S K K * * P , 1 7 5.C.S.C.                    ",
"                  Z.S.Z.h.h < F ] ] H C ' H G G F V F F F D V n C C C I 8.C.Z.n.                    ",
"                  Z.Z.S.j.h > H ] H H A G ] ] G ] Z H [ H H F C G F D ^ 0.C.Z.c.                    ",
"                  Z.S.S.k.h 8 ' ] ' H D ' ] ] G ] A ' ] ] ] G F ] ] H _ w.C.Z.n.                    ",
"                  Z.Z.S.x.j 6 ] ] ] ] F ] ] ] ] ] A F ] ] ] G G H ] ] o.y.Z.Z.C.                    ",
"                  C.C.S.x.4.7 ' ] G ] F G ] ] G ] C G ] ] ] G G H ] H $.y.A.Z.C.                    ",
"                  C.C.S.v.5.0 ' ] ] ] F ] ] ] ] ] D ] ] ] ] G F H H H #.i.A.Z.C.                    ",
"                    C.S.n.5.3 E ] ] ] F G ] ] ] ] F  .H ] ] G F ] ] H #.d.A.C.N.                    ",
"                    N.S.n.6.3 E ] ] [ F ] [ [ [ ] F  .[ ] [ ' G H [ [ %.f.Z.N.                      ",
"                    n.S.n.8.6 '  .] [ [ ] [ [ [ [ [ [ [ [ [ ] G H [ [ &.h.Z.n.                      ",
"                    N.F.C.8.: n n v v n V A D D F F D D D R A N M n c e l.Z.n.                      ",
"                    C.S.C.r.2 $ n M b X . + + # + + x x m J $ o o o o e j.A.v.                      ",
"                    n.S.Z.r.4 I | | | B m E E R R Z { } | | T Y =.$.D ,.d.C.n.                      ",
"                    C.S.Z.y.t I { | | Y B | | | { { | | | | T ` z.p.{ k x.C.v.                      ",
"                    Z.F.Z.u.t P ] ] ] M b { ] ] F F ] ] | ] Y =.a.q.$.k v.Z.V.                      ",
"                    Z.S.A.s.a Q H ] ] N n ] ] ] F F ] ] [ ] Z *. ...:.k n.A.n.                      ",
"                    A.S.A.f.u Q ] ] ] Z Z G ] ] A T ] ] [ ] n ;.3.<.&.1.C.Z.V.                      ",
"                    A.S.S.g.a Q ] ] ] F D ] ] ] F N ] ] ] ] n W :.-.W 3.C.C.C.                      ",
"                    V.Z.Z.g.g ; ] ] ] F F ] ] ] D Z ] ] ] ] n F H H W 8.C.Z.C.                      ",
"                    C.S.Z.j.h < H ] [ F ' ] ] ] C Z [ ] ] { N D ] H ( 0.Z.Z.C.                      ",
"                    A.S.S.j.j < ' ] ] F F ] ] ] Z C [ ] ] ] N R ] ] ) w.C.Z.C.                      ",
"                    A.S.S.l.j 8 G ] [ D F ] ] ] A C ] ] ] ] A ]  . .o.t.Z.Z.Z.                      ",
"                    Z.S.S.c.5.6 [  . .] ]  .[ [ F F ] ] ] ] G F D C ~ u.Z.Z.Z.                      ",
"                      S.F.v.7.< ] ] ] ] G F G F F C N n v z O o o z : i.A.A.                        ",
"                      S.F.n.8.5 x c x z + z z z o o o + z c O c A F O.d.S.S.                        ",
"                      S.S.n.e.2 B V N c + C A A n b N F ] ] N D H F O.f.S.S.                        ",
"                      Z.Z.N.r.0 D ] ] M v [ ] ] N n A A A A c N F C O.h.C.A.                        ",
"                      Z.Z.n.r.3 Z F F v $ F ] G n x C C C C + v C C e j.A.A.                        ",
"                      C.Z.C.s.g _ ..) L U ) ..) L % ( ( ( / % U / / ,.v.Z.C.                        ",
"                    B.C.A.A.A.B.m.M.M.M.m.M.M.M.M.m.m.M.M.M.M.m.M.M.A.C.C.V.V.                      ",
"                    B.n.m.m.A.S.J.J.J.J.J.J.J.J.J.J.J.J.J.J.J.J.D.J.D.S.C.n.n.m.b.                  ",
"                  b.b.b.b.b.m.C.C.V.C.C.C.C.V.V.V.V.V.A.V.C.V.V.V.V.V.m.b.b.v.c.c.                  ",
"                  c.b.c.b.b.c.v.c.v.b.c.b.c.b.b.b.b.c.b.c.b.b.z.z.c.k.k.k.c.z.c.j.                  ",
"                    j.j.j.z.z.z.c.z.z.c.z.z.c.c.z.z.k.k.j.j.z.z.l.z.k.k.k.k.k.k.j.                  ",
"                                          k.z.j.z.j.j.j.0.y.j.j.j.                                  ",
"                                                                                                    ",
"                                                                                                    "
};
