/* XPM */
static char *_91daa1a90a249b1abf93aadd5aff5fdcYomg5VONXqGFzQn[] = {
/* columns rows colors chars-per-pixel */
"50 50 128 2 ",
"   c #533721",
".  c #573B25",
"X  c #593D26",
"o  c #573C29",
"O  c #5A3F29",
"+  c #5C4126",
"@  c #5E422C",
"#  c #5F4331",
"$  c #61452E",
"%  c #63492E",
"&  c #624631",
"*  c #654A33",
"=  c #694D36",
"-  c #674A3A",
";  c #6A4E38",
":  c #6A5036",
">  c #6C5038",
",  c #6E5338",
"<  c #6C503A",
"1  c #6C503B",
"2  c #6D513B",
"3  c #6F503B",
"4  c #6C523B",
"5  c #6E523A",
"6  c #6F533B",
"7  c #6D5539",
"8  c #6F5439",
"9  c #6D513C",
"0  c #6D533C",
"q  c #6E523C",
"w  c #6E523D",
"e  c #6F533D",
"r  c #6C543C",
"t  c #6D553D",
"y  c #6F553C",
"u  c #6F553E",
"i  c #6E563E",
"p  c #6D523B",
"a  c #70563B",
"s  c #71563B",
"d  c #70513C",
"f  c #70543C",
"g  c #71553D",
"h  c #70543E",
"j  c #71553F",
"k  c #70563F",
"l  c #72563E",
"z  c #73573F",
"x  c #71553E",
"c  c #725A3E",
"v  c #74593E",
"b  c #72583E",
"n  c #6F5240",
"m  c #715540",
"M  c #715740",
"N  c #725640",
"B  c #725641",
"V  c #735741",
"C  c #725640",
"Z  c #735940",
"A  c #735942",
"S  c #735B43",
"D  c #745840",
"F  c #755941",
"G  c #745A41",
"H  c #765B40",
"J  c #745842",
"K  c #755943",
"L  c #765A42",
"P  c #775B43",
"I  c #775C41",
"U  c #755944",
"Y  c #765A44",
"T  c #765A45",
"R  c #775B45",
"E  c #755D45",
"W  c #775D46",
"Q  c #755A43",
"!  c #785A42",
"~  c #785D42",
"^  c #795A45",
"/  c #785C44",
"(  c #795D45",
")  c #7B5D45",
"_  c #7A5F44",
"`  c #785C46",
"'  c #785C47",
"]  c #795D47",
"[  c #7A5E46",
"{  c #7B5F47",
"}  c #795E46",
"|  c #7A5E48",
" . c #7A5F48",
".. c #7B6045",
"X. c #7C6146",
"o. c #7D6247",
"O. c #7A6046",
"+. c #7B6148",
"@. c #7A6049",
"#. c #7C6048",
"$. c #7D6149",
"%. c #7E6348",
"&. c #7C604A",
"*. c #7E624A",
"=. c #7F634B",
"-. c #7F6449",
";. c #7E644B",
":. c #7E624C",
">. c #7F634D",
",. c #7F654C",
"<. c #7E664C",
"1. c #7D614B",
"2. c #81664B",
"3. c #82674A",
"4. c #81624D",
"5. c #80644C",
"6. c #81654D",
"7. c #80644E",
"8. c #81674E",
"9. c #83674F",
"0. c #81664E",
"q. c #83684B",
"w. c #84694E",
"e. c #826650",
"r. c #836751",
"t. c #826650",
"y. c #856953",
"u. c #8A6E58",
/* pixels */
"P = = $ $ @ = * * ; * d w B * & O 2 $ % ; * & ; * & @ 3 * O * $ & $ $ $ d 2 X * $ X % * & * * < & = ",
"P * $ * $ * & $ & * & = * = $ O $ ! > & * @ & * @ & @ - ; 3 ^ ; O O O O w z $ ; * $ = : < < & & { ^ ",
"o.g * 2 & = & * * & & @ $ @ $ @ * 5.P = & $ * * & * & & = V { ; & ; w V r.4.= $ * = A b = * & * * : ",
"{ z f P * & & ; ; & * @ * & w 2 O f ; & & O & & @ * & @ & ; d & O = ; m *.{ * . # @ i 4 @ @ @ = # # ",
"> * g d ; $ $ O $ @ * & m ; V T + % & 3 ; $ & * O O $ $ O & & $ $ * & = z ) v > @ @ # @ @ * @ @ # @ ",
"f $ * $ ; = ; & & @ * ; d = * * * * & s z * = * & @ = ; & & & & O $ X O $ $ * $ @ # 4 * # : * @ * * ",
"z = * $ * d T B T w * ; * * @ $ = * $ * $ @ $ O w & d ; & = & & & = * ; * $ ; * @ r O.i # * * & # # ",
"$ > w B & ; w ; r.^ & ; & ; = g s s = * $ $ = @ * $ & $ $ = & & $ $ @ * $ $ ! 5.7 i O.* @ * % @ * & ",
"X * * ; $ = & - - = O ; & & = d ! z ) ^ O & $ $ $ O ; = & = - = $ f $ * * ; ) ) q.2 ; o d $ $ * * > ",
"v P % $ $ 3 * O m ; @ & O @ = w = 2 6.^ = & $ O * & - & O * O & $ $ $ * * * 3 = % = * & & $ . @ E ..",
"*.^ $ O @ ; * $ * * & @ & O & O $ X = @ = = ; * * & & $ $ & O & $ $ $ $ * * $ $ % = * * n ^ = * X $ ",
"2 ; & $ $ $ $ % @ & * & d = = o $ $ &   $ $ $ $ $ O O & & $ O & 3 + $ $ $ * $ = ) % ; O :.r.6.2 * = ",
"* $ & = * $ $ $ * ; ; & V d | ; + * 2 2 = f $ $ $ % $ + $ @ $ ; , $ $ $ & - O ; z @ ; $ E g z = @ $ ",
"$ $ $ $ f > ; % * * & & 3 V ^ 3 * & * g V w.; * $ * $ $ & & f 4.% % * = = - & & $ * { ) > * $ $ @ @ ",
"$ * ; @ f ....% @ & @ * = ; = & T * * = 3 ! ; $ $ , $ $ z ; z 4.f f * = * * & o # & T { f v ; & = = ",
"$ B { O ; o.3.+ * ; @ ; & * & O & O P 2 $ % , % $ f $ = ! * % = q.5.$ O O & n O ; . $ + ..r.4.O @ $ ",
"& & = 3 = $ & f * $ = = ; $ & @ O $ $ = & & ! & > * s 2.$ * a * P = * O.r @ # @ @ @ @ @ - = & O @ # ",
"& & $ O O $ = 3 . w ; X = & @ = & & $ & @ $ ! ; : f f v * : @ @ X @ @ M S - : @ = = : < * & & * @ O ",
"X @ $ & & = & @ @ * ; X @ $ 2 ; * = $ & $ * s s v 5.% % = = @ : $ ; $ $ * = < & A * @ * ; ; & O * * ",
"; = & $ & ; = * * $ ; $ $ * P : $ = & & = = * % v 5.% $ ; ; $ 2 ^ 4.; @ @ @ & * = = = < * # & ; & & ",
"U = & = 3 ; * * $ ! z $ c b y P ; % $ $ & * $ $ = * = * ; = * & a E > * ; & & * & * ; = & O # ; $ & ",
"& O $ ; f * @ O X v 2.* 7 c ..{ ) ; $ @ $ & $ * * @ < ; & & = & @ : $ = ; * ; < * & $ @ & & & O 2 V ",
"& & & & $ X $ * % % v , : : <.S ) * ; & $ & & * = $ = @ @ O ; * # # @ @ $ & w < @ * = & @ @ & & z o.",
"O ; | ^ * $ % % 8 $ . % O.% : <.; + 2 2 $ & $ @ @ @ * o & o & & # @ * * @ * i = ; * # @ - B ; O @ * ",
"* *.8.<.a @ % @ : : # + # : : : & = * T R & @ & = = @ @ # # 4 # O ; * & = & O & X $ % f v v * $ % y ",
"2 = i : ..<.+ @ # + # # # # # + O * = T g @ * < <.: @ 7 : @ # 4 * & & ^ *.& O * = = = = ; > * $ % % ",
"* E % @ +.c @ * +.* r i # # : # & $ * w = O & = O.* % S i * r M * & * w w = & & * % $ $ $ % * * % * ",
"* ..@ & : @ # : c # # : + % % % = @ & * * @ & @ + = a a * 7 S @ $ @ & @ O & & O & & * & & $ * * $ % ",
"= + # + . : @ : + # # # 4 : & @ = O & & < & * * % O.<.c : : 7 @ * $ ; d ; ; * = = ; 3 3 ; * * * , ; ",
"* + # * @ # : @ 4 O.r @ r i * < & @ ; $ w & & < = c c O.7 @ # : = * B ; d ^ ; ; % & * $ & & * * $ $ ",
"# * # i - + - @ S S * # = * & & & * w @ T & + = + : # # @ o @ * $ @ & O = T $ = O @ $ O @ @ $ * * * ",
"# @ # # - r + # : # + # * & & @ & & ; O >.i @ 4 * y.M @ # 4 # o d O * V u.:.@ V = * * & & & & * @ $ ",
"# # # 7 R * . * @ @ & @ @ & @ X 5.w.* O & * ; * 2 | R @ @ &.&.7 @ % * : z v ; % * $ ; z $ $ d @ @ $ ",
"* # * 7 d & @ ; d * $ & ; ; * @ > v % f ^ ; * O * < 4 @ # &.;.R = & $ % * * ; = ; * & $ O z r.= & & ",
"& # * r ; * & * ; & & * * * * ; * * X $ d = & * * * * # & * $ & * $ & * $ O O & * * ; d & $ d * % % ",
"# 4 * : V w $ @ @ & * * & $ & = $ * $ $ = & $ & + @ : # @ $ O & $ & 2 P V * $ & @ O = 4.; X & * % * ",
"= R = * 6.&.$ $ = = * & = ; & O = ! g @ @ & O * # : d * $ * ; V @ @ * B V ; & * & = = ; & & = X r i ",
"* S $ @ { T @ & * & & = ; ; * $ ! 2.{ $ O * & = ; r { ; & * & * = $ @ @ $ @ & * ; = = ; & @ $ O * < ",
"@ * @ @ & & @ * * O & ; w * & ; * 2 g = U ^ $ O @ $ ; ; = ; & * P B ; & $ @ & * O O O ; ; @ & ; . @ ",
"@ @ = < @ @ ; ;  .* $ U { = & = $ X O O B  .* & i & & @ & * * d & * - * & $ # O & & O @ * ; w @ ; = ",
"* O * O $ ; $ & = $ % f & ; ! & & $ = ; O $ & O ^ d & O & * w <.% & & $ $ ; f = = $ & = = = = = : * ",
"& = = = = & = B = ; ; $ $ * & $ & ; & & d ; $ w ; ; = & ; * & * % % % $ $ * ; B & O & V V ; = & & & ",
"  * $ * = & V *.= 4.z $ & = & & & $ @ @ & @ @ @ @ * * & & & @ X & & % & * * ; ^ ; & & = ; * & & & @ ",
"& m & @ * & & & O ; * $ & = $ & $ @ * & O & * & $ & $ @ @ $ & = $ $ $ $ % $ = ; V = $ $ * & $ * & # ",
"O U 4.= @ $ O & $ O O & & * * * $ | V & = ; & * * & & * # & 2 R = * & @ & - = * & & O & = = & = = * ",
"= & ; @ = :.; X * $ $ * = * = * * V | d = w ; @ = & * ; = ; i w * > * $ & ; ; & O = * & = * * ; * & ",
"o = y.{ @ X = ; & , = * ; * O * & . V :.= ^ y.* = & & & = A i @ @ @ @ O O & * O * T ; O & * = B * # ",
"& = ^ y.d & 5.! $ ) ^ 3  .B O * $ O = T B ; = O ; * $ X @ &.&.@ $ $ $ - = = = ; *  .^ & * 3 m | & @ ",
"2 i * = = & r A @ O.7 i & @ < o 4 & & < n A = @ ; % = c P % 4 # * @ & & 3 3 = 3 ; ; n * S < * < * * ",
"= > $ @ # o # = @ : * i 4 @ 7 @ & # % = = = = @ * $ : E R & * # & @ # & = * & B ; * * @ M 7 @ # @ # "
};
