/* XPM */
static char *istockphoto_1180936502_612x612_1_50x501675699171[] = {
/* columns rows colors chars-per-pixel */
"50 50 235 2 ",
"   c #020414",
".  c #000915",
"X  c #1D0F15",
"o  c #001B18",
"O  c #000204",
"+  c #03261F",
"@  c #0A082A",
"#  c #00102D",
"$  c #051F26",
"%  c #16172A",
"&  c #0A1F34",
"*  c #021B38",
"=  c #151634",
"-  c #0F0A38",
";  c #2F1C30",
":  c #1E272E",
">  c #0B2035",
",  c #05253B",
"<  c #11263B",
"1  c #17293C",
"2  c #22212F",
"3  c #233239",
"4  c #473D3C",
"5  c #37423A",
"6  c #000D46",
"7  c #002849",
"8  c #00324C",
"9  c #023758",
"0  c #0B314F",
"q  c #273947",
"w  c #303548",
"e  c #00414E",
"r  c #184754",
"t  c #004357",
"y  c #2D464A",
"u  c #3F5E59",
"i  c #064666",
"p  c #184976",
"a  c #015673",
"s  c #0F5672",
"d  c #2A5A67",
"f  c #2C5978",
"g  c #3A5B6C",
"h  c #146979",
"j  c #2E7E7F",
"k  c #296B79",
"l  c #474C4B",
"z  c #5D5349",
"x  c #5B4844",
"c  c #62584E",
"v  c #655B51",
"b  c #79555A",
"n  c #5A635C",
"m  c #686453",
"M  c #65604D",
"N  c #585868",
"B  c #425164",
"V  c #745874",
"C  c #694C60",
"Z  c #43656A",
"A  c #5A6668",
"S  c #5B6A79",
"D  c #48687D",
"F  c #666C65",
"G  c #657268",
"H  c #656D79",
"J  c #647177",
"K  c #727B7E",
"L  c #796E72",
"P  c #1D6A96",
"I  c #0C6F8F",
"U  c #366C8D",
"Y  c #3B7786",
"T  c #316F9E",
"R  c #207A94",
"E  c #0E70A1",
"W  c #167AA7",
"Q  c #317DAA",
"!  c #577582",
"~  c #5C7F92",
"^  c #777A89",
"/  c #6A6F85",
"(  c #417DA1",
")  c #8E7FA6",
"_  c #1E8F9F",
"`  c #3D859A",
"'  c #278296",
"]  c #1F8DBE",
"[  c #1187B4",
"{  c #3284AE",
"}  c #2795AE",
"|  c #2C97BB",
" . c #3C95B2",
".. c #318DAF",
"X. c #418590",
"o. c #718696",
"O. c #4983B1",
"+. c #0996C9",
"@. c #1898CB",
"#. c #0895D7",
"$. c #149CD3",
"%. c #1D9CD4",
"&. c #1A9CDD",
"*. c #1294D8",
"=. c #0C8AD6",
"-. c #2A98C7",
";. c #3899C8",
":. c #249CD4",
">. c #249FDC",
",. c #2B9BD9",
"<. c #389DD7",
"1. c #318AC9",
"2. c #18A8CB",
"3. c #1AA4D3",
"4. c #19ABD4",
"5. c #1DA4DB",
"6. c #1BAADC",
"7. c #16A7D6",
"8. c #1AB1DA",
"9. c #09A4D0",
"0. c #38A5CC",
"q. c #26ADD4",
"w. c #24A4DC",
"e. c #2CA5DC",
"r. c #23ABDD",
"t. c #2BABDD",
"y. c #29A6D4",
"u. c #33AADD",
"i. c #35A5D7",
"p. c #2BBADC",
"a. c #27B5DA",
"s. c #35B8D9",
"d. c #2FB2C4",
"f. c #1C9BE5",
"g. c #249EE4",
"h. c #2C9BE9",
"j. c #0EA3E3",
"k. c #1EA5E2",
"l. c #1AA6E8",
"z. c #1DB6E2",
"x. c #1BB9E9",
"c. c #1BA7F1",
"v. c #0FB3F1",
"b. c #25A5E3",
"n. c #2CA5E4",
"m. c #25ABE3",
"M. c #29AAE3",
"N. c #25ACE9",
"B. c #2CACEB",
"V. c #26A7EC",
"C. c #33A5E5",
"Z. c #33ACE3",
"A. c #34A5EB",
"S. c #32ACEB",
"D. c #3BABE8",
"F. c #23B2E4",
"G. c #2CB3E5",
"H. c #24B3EB",
"J. c #2BB3EB",
"K. c #2BBAEC",
"L. c #25BCE7",
"P. c #33B1E5",
"I. c #3CB3E5",
"U. c #38B8E7",
"Y. c #34B4EC",
"T. c #33BAEB",
"R. c #39B7EC",
"E. c #24AAF3",
"W. c #2CABF2",
"Q. c #2BAEFB",
"!. c #35ACF4",
"~. c #2DB2F3",
"^. c #2AB6F6",
"/. c #35B4FB",
"(. c #38B9F8",
"). c #469CC6",
"_. c #44A6CB",
"`. c #45A8D7",
"'. c #46BBDB",
"]. c #55AAD2",
"[. c #6CA0D2",
"{. c #49B8E8",
"}. c #4CAFFF",
"|. c #43B7FC",
" X c #50B4EB",
".X c #62BFE8",
"XX c #1AD9FF",
"oX c #3AC4F4",
"OX c #2EC1F5",
"+X c #47C8E8",
"@X c #44C7FF",
"#X c #53C7F8",
"$X c #9E909D",
"%X c #878A8C",
"&X c #A18488",
"*X c #9896A1",
"=X c #A894A5",
"-X c #BA9BA8",
";X c #B1B0B4",
":X c #D8AFBD",
">X c #EBC2BE",
",X c #B8B9C9",
"<X c #E0BFC6",
"1X c #BDCBCE",
"2X c #C5CDCB",
"3X c #D4D2C5",
"4X c #D7CAD6",
"5X c #CCC7CD",
"6X c #EFC9D1",
"7X c #DDF6D8",
"8X c #FDF8DE",
"9X c #E8ECDA",
"0X c #D7D4E3",
"qX c #FFD2E5",
"wX c #DAFDFA",
"eX c #CCF1E0",
"rX c #EAE7E9",
"tX c #F9EDE8",
"yX c #ECFCEC",
"uX c #ECF6EA",
"iX c #F5F4EB",
"pX c #F2FDED",
"aX c #FCFCED",
"sX c #F8FBE7",
"dX c #FBE9F2",
"fX c #F8EDF8",
"gX c #EAFEFC",
"hX c #EAF9F3",
"jX c #FCF5F4",
"kX c #F6FFF5",
"lX c #FEFCF5",
"zX c #FEF5FE",
"xX c #F5FFFE",
"cX c #FEFCFD",
"vX c #EAE9F5",
/* pixels */
"M.M.M.M.M.M.M.M.M.M.M.M.M.M.M.M.M.M.M.M.M.M.M.M.M.M.M.M.M.M.M.M.M.M.M.M.r.M.M.M.M.M.M.M.M.M.M.M.M.M.",
"M.M.M.M.M.M.M.M.M.M.M.M.M.M.M.M.M.M.M.M.M.M.M.M.M.M.M.M.M.M.M.M.M.M.M.M.M.M.M.M.M.M.M.M.M.M.M.M.M.M.",
"M.M.M.M.M.M.M.M.M.M.M.M.M.M.M.M.M.M.M.M.M.M.M.M.M.M.M.M.M.M.M.M.M.M.M.M.M.M.M.M.M.M.M.M.M.M.M.M.M.M.",
"M.M.M.M.M.M.M.M.M.M.M.M.M.M.M.M.M.M.M.M.M.M.M.M.M.M.M.M.M.M.r.M.M.M.M.M.M.M.M.M.M.M.b.M.M.M.M.M.M.M.",
"M.M.M.M.M.M.M.M.M.M.M.M.M.M.M.M.M.M.M.b.M.M.M.M.M.M.M.M.M.M.M.M.M.M.M.M.M.M.M.M.M.M.M.M.M.M.M.M.M.M.",
"M.M.M.M.M.M.M.M.M.M.M.M.M.M.M.M.M.M.M.M.M.M.M.M.M.M.M.M.M.M.M.M.M.M.M.M.M.M.M.M.M.M.M.M.M.M.M.M.M.M.",
"M.M.M.M.M.M.M.M.M.m.M.M.M.M.M.M.M.M.m.M.M.M.M.M.M.M.M.M.M.M.M.M.M.M.M.M.M.M.M.M.M.M.M.M.M.M.M.M.M.M.",
"M.M.M.M.M.M.M.M.M.M.M.M.M.M.M.M.M.M.M.M.M.M.M.M.M.M.M.M.M.M.M.M.M.M.M.M.M.M.M.M.M.M.M.M.M.M.M.M.M.M.",
"M.M.M.M.M.M.M.M.M.M.M.M.M.M.M.M.n.M.M.F.F.t.t.i.H.<.i.t.L.f.!.J.0.e.B.~.$.Y.b.E.M.M.M.M.M.M.M.M.M.M.",
"M.M.M.M.M.M.M.M.M.M.M.M.M.M.M.M.S.G.M.r.5.r.w.M.l.b.Z.3.K.b.Z.0.q.r.f.|.A.{.+.x.M.M.M.M.M.M.M.M.M.M.",
"M.M.M.M.M.M.M.M.M.M.M.M.M.M.M.M.t.m.M.M.b.M.H.H.H.T.oX+.J.{.a k I i.B.#.h.u.U.q.M.M.M.M.M.M.M.M.M.M.",
"M.M.M.M.M.M.M.M.M.M.M.M.M.M.M.M.4.m.B.S.S.B.N.H.2.<.-.oX@.O.q o = U y.OXv.7.I.<.M.M.M.M.M.M.M.M.M.M.",
"M.M.M.M.M.M.M.M.M.M.M.M.M.M.M.M.6.r.B.S.A.n.r.5.{.p * +XI = 6X7XqXn 8 '.a.K.>./.M.M.M.M.M.M.M.M.M.M.",
"M.M.M.M.M.M.M.M.M.M.M.M.M.M.M.M.G.t.M.b.A.Z.i.i.h / ) h ` V qXkX8X%XJ f U Q e.j.M.M.M.M.M.M.M.M.M.M.",
"M.M.M.M.M.M.M.M.M.b.M.M.M.M.M.M.u.w.k.N.J.u.;.{ . ;XcXO / cXcXlXpXrXiXX   ,  .oXM.M.M.M.M.M.M.M.M.M.",
"M.M.M.M.M.M.M.M.M.M.M.M.M.M.M.M.u.b.z.H.G.-.P s 4XyX9X>XcXgXwXcXxXzXxX3X3X2Xq s M.M.M.M.M.M.M.M.M.M.",
"M.M.M.M.M.M.M.M.M.M.M.M.M.M.M.M.H.$.D.<.1.( B G kXxXcXcXcXcXcXzXsXpXlXlXcXrXo.5 { _.{.g.n.S.m.3.M.M.",
"M.M.M.M.M.M.M.M.M.M.M.M.M.M.M.M.*.@Xt.t.[ * 2XaXlXaXaXlXlXjXjXcXcXcXcXcXcXcX0X,X7 E e.B.b.>.M.T.M.M.",
"M.M.M.M.M.M.M.M.M.M.M.M.M.M.M.M.!.n.3.4.a.h J b m v m F G F J K A n F n n G A G W i.R.J.B.n.w.r.M.M.",
"M.M.M.M.M.M.m.M.M.M.M.M.M.M.M.M.D.:.T.6.6.{.i & % % = = = @ @ @ : % ; % % % : q {.U.6.$.B.R.t.6.M.M.",
"M.M.M.M.M.M.M.M.M.M.M.M.M.M.M.m.@.R.M.B.*.Q.b.-.8.z.x.7.4.a.s.d.r.3.M.G.M.z.k.OX@.w.6.5.m.M.e.J.M.M.",
"M.M.M.M.M.M.M.M.M.M.M.M.M.M.M.M.r.a.-.C.Q.c.(.J.W.~.c.l.l.S.Z.u.B.g.B.B.W.W.l.W.B.P.K.H.S.w.w.J.M.M.",
"M.M.M.M.M.M.M.M.M.M.M.M.M.M.M.N.(.%.P.4.N.M.] ).].;.<.S./.N.b.w.s.q.s.t.y.t.3.q.Z.m.3.5.e.n.w.H.M.M.",
"M.M.M.M.M.M.M.M.M.M.M.M.M.M.M.N.n.b.4.OX9.'.i , + o t ..I.M.k.J.n.w.Z.n.n.Y.N.B.n.m.k.B.R.e.%.N.M.M.",
"w.k.F.z.8.r.t.P.a.u.Z.,.h.Q.E.v.x.c.!.C.| X.J C b L Z j _ u.V.Q.9.l.^.A.A.b.r.a.u.t.t.e.e.w.M.B.M.M.",
"S.M.b.r.r.M.t.M.k.E.b.oXR.-.'.`.i.e.r.#XQ . 2XcXcXkXhX# s .X3.l..X X:.M.5.J.(.&.w.w.e.M.G.Y.M.5.M.M.",
"M.b.e.C.C.S.B.M.Q.^.9.p.} e r : 9 P '.8 D 4XrXgXeXkXcX4X) * _.2.& 8 9 +X7.x.f./.M.J.B.5.b.B.Z.e.M.M.",
"r.t.C.C.A.S.N.k.n.u.-.O.Y y l x w ~ Y d %XcXcXxXgXhXjXzX$Xg Y Y 4 u g  .| P.f.f.b.N.B.m.5.w.M.Z.M.M.",
"8.F.B.b.b.b.m.5.].P #   N rXcXcXcX) O rXkXyXcXdXcXcXcXjXcXxX3 y aXsX2X. f ].#X^.w.w.k.~.~.M.y.u.M.M.",
"r.H.F.k.b.Y.P.s.r ! ,X-X:XzXcXgXcX;X-XcXcXyXkXdXdXcXhXxXkXrX=X5XsXlXcX$X^ f i I {.u.w.m.~.B.b.t.M.M.",
"t.M.m.N.N.{.;.{ $ K tXlXjXzXcXxXiXcXxXdXlXiXcXcXcXzXcXcXuXcXlXlXcXcXjXxX%X: o Z | 0.u.b.5.N.Z.t.M.M.",
"i.Z.N.N.M.;.P 9 vXcXxXkXyXkXcXcXlXgXgXxXcXzXcXwXxXcXrXcXcXcXyXyXzXcXxXyXkX9XlX&X7 W {.R.5.M.B.t.M.M.",
"t.4.G.A.f.L.a ; jXzXzXcXcXzXcXzXcXcXzXcXzXcXcXcXzXcXcXzXcXcXzXcXcXzXzXzXcXcXfX0XV ! R M.W.Q.k.2.M.M.",
"G.3.%.S.|.`.d X yXyXkXkXkXkXkXkXkXkXkXkXkXkXkXkXkXkXkXkXkXkXkXkXkXcXkXkXkXkXkXyXcXq > _.n.g.Y.U.M.M.",
"m.R.(.r.W 7 *X8XlXlXcXcXcXcXcXcXcXcXcXcXcXcXcXcXcXcXcXcXcXcXcXcXjXcXcXlXjXlXcXcXpXiX;X8 W Y.C.1.M.M.",
"m.:.w.L.).@ -XsXzXzXzXcXcXzXcXcXcXcXcXcXcXcXcXzXcXcXcXcXcXcXcXcXcXcXcXzXzXzXcXxXsXtX3X   .m./.}.M.M.",
"k.S.G.8.| @ =XsXxXgXxXxXkXxXxXxXxXxXxXxXxXxXxXxXxXxXxXxXxXxXxXxXxXxXxXxXxXxXxXxXcXjX6X  R z.j.f.M.M.",
"5.M.t.r.{.T ~ u c v v v v v v v v v v v v v v v v v v v v v v v c c z c v v v z N H A U 0.K.#.@Xb.M.",
"Y.G.t.:.k.5.I * & > & & & & & & > > > > > > & & & > > > > > > > < & & < 1 < < 1 8 # a {.@./.oX[ M.M.",
"t.7.M.A.j.XX2.[.J.G.G.G.G.G.G.G.G.G.G.G.J.G.G.G.G.J.P.G.G.P.J.G.G.t.r.M.M.r.t.J.).0.a.6.Q.h. Xt.M.M.",
"M.M.M.M.M.M.M.M.M.M.M.M.M.M.M.M.M.M.M.M.M.M.M.M.M.M.M.M.M.M.M.M.M.M.M.M.M.M.M.M.B.M.M.M.M.M.M.M.M.M.",
"M.M.M.M.M.M.M.M.M.M.M.M.M.M.M.M.M.M.M.M.M.M.M.M.M.M.M.M.M.M.M.M.M.M.M.M.M.M.M.M.M.M.M.M.M.M.M.t.M.M.",
"M.M.M.M.M.M.M.M.M.M.M.M.M.M.M.M.M.M.M.M.M.M.M.M.M.M.M.M.M.M.M.M.M.M.M.M.M.M.M.M.M.M.M.M.M.M.M.M.M.M.",
"M.M.M.M.M.M.M.M.M.M.M.M.M.M.M.M.M.M.M.M.M.M.M.M.M.r.M.M.M.M.M.M.M.M.M.M.M.M.M.M.M.M.M.M.M.M.M.M.M.M.",
"M.M.M.M.M.M.M.M.M.M.M.M.M.M.M.M.M.M.M.M.M.M.M.M.M.M.M.M.M.M.M.M.M.M.M.M.M.M.M.M.M.M.M.M.M.M.M.M.M.M.",
"M.M.M.M.M.M.M.M.M.M.M.M.M.M.M.M.M.M.M.M.M.M.M.M.M.M.M.M.M.M.M.M.M.M.M.M.M.M.M.M.M.M.M.M.M.M.M.M.M.M.",
"M.M.M.M.M.M.M.M.M.M.M.M.M.M.M.M.M.M.M.M.M.M.M.M.M.M.M.M.M.M.M.M.M.M.M.M.M.M.M.M.M.M.M.M.M.M.M.M.M.M.",
"M.M.M.M.M.M.M.M.M.M.M.M.M.M.M.M.M.M.M.M.M.M.M.M.M.M.M.M.M.M.M.M.M.M.M.M.M.M.M.M.M.M.M.M.M.M.M.M.M.m.",
"M.M.M.M.M.M.M.M.M.M.M.M.M.M.M.M.M.M.M.M.M.M.M.M.M.M.M.M.M.M.M.M.M.M.M.M.M.M.M.M.M.M.M.M.M.M.M.M.M.M.",
"M.M.M.M.M.M.M.M.M.M.M.M.M.M.M.M.M.M.M.M.M.M.M.M.M.M.M.b.M.M.M.M.M.M.M.M.M.M.M.M.M.M.M.M.M.M.M.M.M.M."
};
