/* XPM */
static char *foggy1676141743[] = {
/* columns rows colors chars-per-pixel */
"50 50 52 1 ",
"  c #34544A",
". c #39574D",
"X c #3A584E",
"o c #3E5B50",
"O c #435E53",
"+ c #496257",
"@ c #4D6559",
"# c #50675B",
"$ c #546A5E",
"% c #586C5F",
"& c #5B6E61",
"* c #5F7063",
"= c #637366",
"- c #677568",
"; c #69776A",
": c #6D796C",
"> c #727C6F",
", c #747E70",
"< c #778072",
"1 c #7B8374",
"2 c #808677",
"3 c #828778",
"4 c #85897A",
"5 c #8B8D7D",
"6 c #8F907F",
"7 c #8F9080",
"8 c #949382",
"9 c #999685",
"0 c #9B9887",
"q c #9F9A89",
"w c #A39D8B",
"e c #A7A08E",
"r c #A8A08E",
"t c #ADA391",
"y c #B1A694",
"u c #B6A996",
"i c #B8AA97",
"p c #BCAD9A",
"a c #BFB09C",
"s c #C3B29E",
"d c #C6B4A1",
"f c #C8B5A1",
"g c #CCB8A3",
"h c #D0BBA6",
"j c #D5BDA8",
"k c #DBC1AC",
"l c #E2C6B0",
"z c #E7C9B3",
"x c #EBCCB5",
"c c #EFCFB8",
"v c #F4D2BB",
"b c #F8D4BD",
/* pixels */
"bbbbbbbbbbbbbbbbbbbbbbbbbbbbbbbbbbbbbbbbbbbbbbbbbb",
"vvvvvvvvvvvvvvvvvvvvvvvvvvvvvvvvvvvvvvvvvvvvvvvvvv",
"ccccccccvxxvcccccccccccccccccccccccccccccccccccccc",
"xxxxxxxxxxxxxxxxxxxxxxxxxxxxxxxxxxxzxxxxxxxxxxxxxx",
"zzzzzzzzzzzzzzzzzzzzzzzzzzzzzzzzzzzzzzzzzzzzzzzzzz",
"llllllllllllllllllllllllllllllllllllllllllllllllll",
"kkklkkkkkkkkklkkkkkkkkkkklkkkkklkllkklkklklklklklk",
"kkjkkkkkkkkkjkkkkkkkkkkkkkkkkjkkkjkjkkkkjkjkjkjkjk",
"jjjjjjjjjjjjjjjjjjjjjjjjjkkkhjjjjjjjjjjjjjjjjjjjjj",
"hhhhhghhhhhhghhhhhhggjggjjjjhhhhhhhhhhgghhhghhhhhh",
"gggggggggggggggggggggggggggggggggggggggggggggggghh",
"ffffffffffffgsgsfffffgffsdfsgggfsgsggsgfsgffgsgghh",
"ssssssssssssssssdssssspappidgdddssssssssssssssssgd",
"appppsspappppsspapaappuyippppsssapspspspsppaaassps",
"pippppipppipppippppiityyppspipppupipippipippiiuiii",
"uuuuuuuuuuuuuuuuuuuytetyyyyuytuytuuuuuuuuuuuytytiy",
"yyyyyyyyyyyyyyyytyytrrrrrrrrrrrrryyyyyyyyyyyerruii",
"ddauttttttttttttttttrrtttytryttttrtttttrttrwwttyty",
"gfgsittyterrerrrrrteeeeereeeeerreeeerrrerrw0qqqwww",
"sssssuiiywwwwwwwewwwweeeeewwwweeewweewweewwwwwwwww",
"pppssatttwwqwqqqqqqqqqqqqqqqwqqqwqqqqqqwqwwqw0w00q",
"pppdsatwww00000000000000q0000000000000900000000000",
"uuppapt0q99988899988998899999988898898988888989qty",
"tupipiy088888888788887886668666eyyr08888888868qupp",
"tyiiyyitw575755755656555666656euiiiu9555655558yiuu",
"ttttttttt98445455555555555555qyyyuuyy855555550yyyy",
"qwwwwwwww93313444444444435338rtttttttw5444345wyrtt",
"qq00000qqq5333333331333313150trrrrrwrw5333335wwwww",
"99999099999511111138q8311113qwwwwwwwww8146458wwwww",
"8888888888883<<<<18wew01<<<5qqq0q00ww095www0q00000",
"7777777766663>,>>4009005<>>6999989999899ww98889889",
"5555555555553>:>>5888887<,<58888888888899968888788",
"4445444445452;:;>555554555557777575778ww7775575575",
"433344433334,;-;>311113454544545544579997455455445",
"23122,1213231>:>>>><,>1344333433554378873444344244",
",,,,2,,,,,,,,,,>:>::::<311313113885455751111121112",
",,>,,,>,>,,,,,,2564<5<<<<11<143577574443,,,,,,1,,,",
"2,>>:::>::>>>>,5868533,>>,,,1764445753,,,,,,,,,,,,",
"75,;;;;;;;;;;,4544453::><331355314755,::,>:::>,:>:",
"55,;=--=-===;,,231111:;>133111111113>;;;;:;;;;;;,,",
"24,:==**>,>*=>,,,,>>,:>41,,14,,,23,>;==========>55",
",2,,=&&>444;*;:;;;::::<31;,33,;,442;***&***&*=*,44",
",,>>;&&,,,,>*=======->>::=>>,,;,,,,:&&&%&&&&:2,,,,",
"::;;=$*:>;*&%%&%&%$*>3<=>,:=;=:,:>:=&&&$&&#&,,2,::",
",,;**&&=*%#$#$$#$*#&>:>;,,:&&&;,;***&#O&###=>::::>",
">>:&%&%$#++OOOO@:<=&====-;;;$&;=>*#&=$#OOO#&****;>",
"::;&###@OOoXOO;*=;:=$#&:=&-;&*>>:=O=>&$OO#$$###;>=",
"*;;*++OOO .  O=&#$%-=#@=&+##*=&=&&&;=&=OOOOOO*&&*;",
"*&$&#OXOX OO.O=$O*$$*&O**OO*&&&#&**&@&#@O.O#&&=&#=",
"OOOOO    .OOOOOOOOOOOOOOOOOOO##OOO@#O#OO XO#@O@@OO"
};
