/* XPM */
static char *iii1675782666[] = {
/* columns rows colors chars-per-pixel */
"50 50 248 2 ",
"   c #010204",
".  c #050906",
"X  c #03040B",
"o  c #0A050C",
"O  c #06090B",
"+  c #0A0C0C",
"@  c #0A0504",
"#  c #170503",
"$  c #0C110E",
"%  c #151508",
"&  c #010513",
"*  c #040B13",
"=  c #0C0D13",
"-  c #040C1B",
";  c #0B0D1B",
":  c #070414",
">  c #120C15",
",  c #140D1B",
"<  c #180A17",
"1  c #0D1114",
"2  c #03121A",
"3  c #0B131C",
"4  c #081518",
"5  c #121314",
"6  c #14141B",
"7  c #1B141C",
"8  c #15191B",
"9  c #1B1C1C",
"0  c #171615",
"q  c #25070C",
"w  c #23181B",
"e  c #371615",
"r  c #360F0C",
"t  c #1B221D",
"y  c #232416",
"u  c #39341E",
"i  c #050E21",
"p  c #160E22",
"a  c #0D1423",
"s  c #091826",
"d  c #131423",
"f  c #1B1323",
"g  c #141B24",
"h  c #1B1C23",
"j  c #151B2A",
"k  c #1A1C2C",
"l  c #15162B",
"z  c #1A1E31",
"x  c #181E35",
"c  c #211D21",
"v  c #241A27",
"b  c #301E2A",
"n  c #1B2224",
"m  c #1C232C",
"M  c #172729",
"N  c #1C2234",
"B  c #1B2737",
"V  c #0B2226",
"C  c #222324",
"Z  c #23252B",
"A  c #25292B",
"S  c #2B2B2C",
"D  c #282825",
"F  c #2D322C",
"G  c #212534",
"H  c #232A33",
"J  c #2A2C33",
"K  c #232B3C",
"L  c #2B2C3B",
"P  c #292536",
"I  c #382B37",
"U  c #25303B",
"Y  c #2B333C",
"T  c #293538",
"R  c #333435",
"E  c #343B34",
"W  c #32353C",
"Q  c #393B3B",
"!  c #332F2E",
"~  c #480501",
"^  c #451519",
"/  c #530D0F",
"(  c #690A17",
")  c #70140D",
"_  c #502909",
"`  c #722C16",
"'  c #6F1A25",
"]  c #553536",
"[  c #713233",
"{  c #5F1722",
"}  c #38423D",
"|  c #40423F",
" . c #65473A",
".. c #6A4A32",
"X. c #272D44",
"o. c #332F44",
"O. c #2C3344",
"+. c #2D3B43",
"@. c #283247",
"#. c #343B44",
"$. c #3B3D43",
"%. c #3A3D4A",
"&. c #363648",
"*. c #353A54",
"=. c #293451",
"-. c #1C2747",
";. c #443C48",
":. c #483F50",
">. c #6A3F48",
",. c #3C4343",
"<. c #3B434D",
"1. c #364649",
"2. c #3B425C",
"3. c #394653",
"4. c #3E5258",
"5. c #374665",
"6. c #434445",
"7. c #41444C",
"8. c #484A4B",
"9. c #454C54",
"0. c #434C5C",
"q. c #474756",
"w. c #584955",
"e. c #4B535B",
"r. c #475559",
"t. c #585659",
"y. c #564744",
"u. c #624149",
"i. c #6D5358",
"p. c #5E605F",
"a. c #484D64",
"s. c #4B5765",
"d. c #535B6A",
"f. c #555966",
"g. c #575D76",
"h. c #52556A",
"j. c #665D6C",
"k. c #556365",
"l. c #53636B",
"z. c #5B636A",
"x. c #5B6669",
"c. c #5C647A",
"v. c #596876",
"b. c #546D71",
"n. c #62656B",
"m. c #666768",
"M. c #686B76",
"N. c #69757A",
"B. c #777879",
"V. c #716B70",
"C. c #881614",
"Z. c #951C19",
"A. c #962E17",
"S. c #AF3117",
"D. c #8F1825",
"F. c #91292D",
"G. c #AC2927",
"H. c #C33525",
"J. c #B14B2E",
"K. c #965226",
"L. c #D34F2F",
"P. c #E75833",
"I. c #C56433",
"U. c #C64714",
"Y. c #833F40",
"T. c #8E6A4B",
"R. c #86767A",
"E. c #886D65",
"W. c #A0615C",
"Q. c #E66848",
"!. c #C57C6C",
"~. c #7A827E",
"^. c #8C8979",
"/. c #AF8E6F",
"(. c #EBA677",
"). c #E08F65",
"_. c #5F6F85",
"`. c #686C83",
"'. c #697785",
"]. c #757B85",
"[. c #6F7891",
"{. c #817B82",
"}. c #6D8586",
"|. c #7C838D",
" X c #76878C",
".X c #798796",
"XX c #7A9297",
"oX c #7E918D",
"OX c #848483",
"+X c #858989",
"@X c #898B96",
"#X c #938C97",
"$X c #879598",
"%X c #979898",
"&X c #92918D",
"*X c #A8928D",
"=X c #9FA19E",
"-X c #8A98A5",
";X c #979CA8",
":X c #959EB4",
">X c #848CA9",
",X c #9BA4A8",
"<X c #9AA6B7",
"1X c #91ACB0",
"2X c #A5A8A9",
"3X c #A6ADB7",
"4X c #A6B4BA",
"5X c #B6B8B8",
"6X c #B6AFB0",
"7X c #A3A69D",
"8X c #C3BBBD",
"9X c #C0A0AD",
"0X c #D4AF8C",
"qX c #98ACC8",
"wX c #A8B8C4",
"eX c #B6BAC7",
"rX c #AEB8D4",
"tX c #CABBC9",
"yX c #B7C5C8",
"uX c #BDCCDE",
"iX c #B7C5D7",
"pX c #B3CCD2",
"aX c #BBCDE2",
"sX c #BACCEE",
"dX c #C8C9CA",
"fX c #C6CBD8",
"gX c #C7D2DD",
"hX c #D5D4D5",
"jX c #DAD9D9",
"kX c #E4C5D5",
"lX c #C6CCE7",
"zX c #CBDAEA",
"xX c #C6D5E6",
"cX c #D3D8E8",
"vX c #CADBF3",
"bX c #D4DDF4",
"nX c #EADCE2",
"mX c #CFE2E9",
"MX c #D7E5EB",
"NX c #D5E4F8",
"BX c #D8F3FA",
"VX c #E7E8E8",
"CX c #E6E9F9",
"ZX c #E8F7FC",
"AX c #FCFEFC",
"SX c #F5F8F6",
"DX c #EDF0EC",
"FX c #D6E1DD",
/* pixels */
"yXdXVX2XE E F y V.VXdXFX%X3.x g.a.*.*.h.a.2.2.h.X.@.X.K G N P L X.x @.&.O.j ;X5XdXm.9 S D < OX=X#XB.",
"hXSXSXjXD E F E %XAXFXZX;X1.a.a.=.*.5.a.2.*.h.h.B B N z z G G B x B O.O.O.Y yXVX{.8.! S D ] OX8X=XOX",
"$.6.Z D DXDXVXVXB.t C L 3.h.g.0.=.X.=.*.a.5.a.s x z l z z z l g N N O.K H X Y h   B.dXdXdX8Xm.5 I C ",
"I S . | AXSXSXSX2X  L W <.a.a.=.*.-.*.=.a.2.a.l z z x N k d d i K N N N H d A   9 V.jXjXjXhX! w S 0 ",
"R F % E AXSXAXSX].o L f.h.X.`.=.l i h.5.g.=.B x z z z j ; - a l B K K j 3 * 8 =   6.DXnXVXSX0 0 c % ",
"E N.E t ^.7X&X5X#Xa.e.h.2.=.*.-.X.x _.g.c.=.& i z z s - X & a H i k K G P n 8 1 c OX2X%X#X2X|.w.m.8.",
"=XV.&XD 0   E   #X3X{.`.2.*.5._.rX:X_.g.h.-.s x s s a 3 & & a k N j d : = 4 X = 6X+X  y w @ dXVXjX5X",
"8.6.m.m.5 n 1 1 {.cX2.2.o.-.{.CXlXbX.X[.c.s i i - i j k M 3 - & - d m j 1 3 9 ,.AXOX9 h C w 6XDXjX5X",
"y F . 6.A 5 + O B.fXh.&.l `.CXlXzXbXrX_.v.i & s K K U B g g g X k : 3 ; 6   C hXSX~.1 C 5 Z 5XVXhX5X",
"9 S + 9   X * * m <.d.X.i fXbXuXlXrXuX.X-.& B 3.3.<.<.O.H H j & * d 6   3 8 + 6.  t.VXVXjXhXm.S 6.R ",
"D 9 . $ 5 8 * X X d e.; N.lXcXzXzXzXxX1X@.3.`.'.c.d.0.1.Y Y m * X & X   o O   . 0 B.AXVXSXAX6.. C 9 ",
"! 9 5 .       1   O H o.cXgXfXgXrXbXvXrXXX-X-X-X|.v.0.1.Y T N 4 = = : =     . +   ^.AXAXnX=XZ 5 w 9 ",
"R C 9 O O = X   g $.9.n.'.CXcXfXwX<XiXxXxXpXwX-X'.l.3.+.Y U M 4 X X X   * F p.p.Q %XdXp.1 5 M 9 S S ",
"C J 9 + . h 8 = n.$Xn.+XC r.oXFXcX'.>XzXzXrX<X'.d.3.1.1.Y U V X = O o   O ,.^.6XAXt.  . n C . n C D ",
"5 D 1 Z X 1 $.z.W 5X,Xn.. k.B.r.4X[.-XzXwX-X'.1.3.+.+.Y N M g *     6   5 t.&XdX} + $     8 . O 0 6 ",
"S 5   B.;XoXM.z.+X$.M.%X} SX~.r.2 XXaXNX$X'.B g #.B A m 6 4 4 4 Q n.M.5 8 t.S   @ . . $ 1 O . $ 5 0 ",
"% E F l.wXaXsXrX|.,.8.dX} } s.+.* d.-X$Xk.T A 6X5Xf.;..   J t V s <.n.Q         O   O .   . $ . 5 5 ",
"y % V s.b.sXiXXXz.m.V.6XFX$X}.[.l.3.wX1X4.M } 2XR.t.;.@ t.T 2 M 1.1.<.J = g 5 = o   o = . $ $ . $ $ ",
"y 0 M.wXrXsXqX_.h.L q.V.|.<XbXbX-Xl.wXyXN.XXr.8.p.p.w B.%XM T T 1.M B M m R J J o     . . . + . $ 5 ",
"I t.wXsXvXsXqXpXlXbXh.L ;XCXlXlXc.`.xX'.yX-X5XyX6X5XjX&XT A 4 1.1.B } T m Y ! W =   O + . . + . 0 $ ",
"b t.w.:XrXBXsXsXlXqX`.o.`.eXCXlX<XiXNX}.qXr.4XVX@Xn.&X> $ n M b.} +.4.1.F Y F S A 5 + > + + $ . 5 5 ",
"b w L eXzXaXvXaXaXfX#X`.N ;.{.<XrXZXzXZXNXmXBXMX].h X J W 4 9.k.4.4.4.4.3.r.1.F W 6 O O . + $ . % 1 ",
"w w z.2XyXXXwXBXpXMX].;X:.I ;.:.&.g.[.`.b.v.XXs.h X $.7.1 1.x.~.}.b.b.k.k.l.r.r.S =   . . . + . 5 5 ",
"y 8.F 1.oXpX}.1XgXxX$X#XM.N w.b o.&.x B s V s i 3 Y <.h r.l.-XyXpXXX X}.b.k.k.M.A O   O + + $ @ 5 1 ",
"y $ F } oXyXpX~.XXvXwX4.4Xs.f.:.q.x &.O.s B B V 0.%.O.%.f.'.4XAXpXXXXX}.b.b.4.A 8 1 . O + $ $ . 0 $ ",
"8 8 3 $ k.}.mXpXb._.qXb.-X<Xg.;.w.j.&.l x V s 3.3.+.#.d.|.|. X-XXXXXXXXXN.k.8.8.= = . . + $ + . % 5 ",
"s a d L n -XwXmXvXh.5.=.5.[.*.&.f I v o.@.U 4.3.X.s.c.c.N.]..XXX}.N.N.b.r.8.} T X O 1 5 5 % $ $ 5 5 ",
"x z X :   $.CXpXvXNXXX5.-.2.[.tXkXtXV.L 1.@.U -.v.}..X[.[.'.l.0.4.b.N.k.k.b.<.  . = 5 5 0 1 $ $ 5 5 ",
"= f # @ # # R.{.hXzXNXbX.X-XAX8X9XkXnX{.S - H v.b.5.3.2.s.a.b..X-X$X Xf.e.x.6.X = = 5 5 $ $ $ . 0 0 ",
"E % % # r  .# E.8XdXfXgXCXdX6X^.E.>.*X{.h h U M 3.'.:X3XwXiXaXzXgX,XB.0.R Z m 6 5 5 5 5 1 $ $ . t 5 ",
"% % % _ /./.T.` ..5XFX7X%X&X&X^.E.>.{ q w W r.$XuXNXmXaXzXNXiX-X].s.9.<.J 6 1 , 9 6 5 6 5 8 $ $ 5 1 ",
"y u % T.T.0X(.` ` T.T.*X0X/.E.u.' ' e >.V.].eXmXzXuXlXbXcX-Xc.v.N.e.J 6 = = 7 5 6 5 > 6 8 t $ . 5 $ ",
"3 ;.y.] _ K.(.).U.S.A.J.!.).W.>.[ ' { i.=XtXyX1X4XxX<X;X].e.e.e.W 7 X = 6 o = C > > > 5 5 6 7 8 8 5 ",
"x e.w. .r ) L.I.I.U.U.S.A.F.F.F.D.' ^ ^ ] q.s.l.4.'.9.#.J h J h $ @   . + + + = 5 > = = = = 5 9 0 5 ",
"o.t.>.>.~ ) U.Q.P.P.U.H.G.D.D.F.( { ^ q o * 8 V s.&.X ; l   * .   O + o o 5 6 O O > + + o O = = C h ",
":.i.u.[ ) C.L.(.P.P.L.U.G.D.D.D.( { ^ e < 7 3 - B h.e.O.; - n = = d 7 o o 7 h 8 = = > > = o o   c 9 ",
"w.>.u.[ [ A.G.Q.P.H.H.S.G.Z.D.( { ^ e q 7 h d i ; N %.g.;.; 4 j d f d , > = 6 c 6 > $ 1 + + @   > = ",
"q.&.|  .] ` ` ` A.G.Z.C.C.C.) ( ^ e w < < d d d - p l p N <.K X d = 5 k h , , h C 9 5 = + + . . 6 5 ",
"F A D | r ] / ~ / / / ~ ~ ~ ~ r q q c w 7 f l f G i p l i a M B d ; p f l 6 , 9 h h 9 5 + . + + t C ",
"M M t t.@  .e e r ^ ^ e e e r q < 0 7 > 6 f f p p p X.N ; j z s j d d a 5 ; 3 6 5 h D C 5 @ @ @ 0 5 ",
"} M V z.%.b w.> < b 8.D 0 } E t 4 1 1 f h f p p f : *.7.a a a - : l k d d d 3 8 h 5 5 S n 9   t D % ",
"XX4X2Xj.&.%.].; ; Z +.2 * 1.} V M 3 3 5 , < p v l k e.s.k i j l k d ; ; l 6 * : X 5     F 9 C p.6Xt.",
"%X6XeX{.;.k a.j.z l X.B V V V M M g 3 = , , f f : L s.f.K - d k ; ; a d d = 6 $.L 6 9 = A $ ,.5XSX^.",
"+XtX6X#Xo.o.l &.M.X.i s 2 4 4 V g 3 6 f v p < , ; %.s.l.%.; p f p m P J H H 9.].yX  Z H   3 +XSXSX5X",
"w.R.i.j.m.#X$.k *.0.O.j 2 a g & 2 = d v v v < : Y r.0.r.<.d f , a 3 * ; H &.$.%.2Xd.W z.%XB.W |.+XN.",
"v @ @ $.2X2XN.s.a #.O.J B 8 d 6 d 3 6 v v 7 , ; L Y M B H d f f v j 4 6 #.q.#.h @XM.X $.v.e.L d B = ",
"A D C E 7X1X X1.t.1.- m ;.P P P f 6 : < < # > 1 4 . 4 * ; 6 < f = 3 ; 6 H Z k C ;Xe.X a $.9.f.f.e.%.",
"t y $ E $X5X$Xr.,.b.z.n.f.J P C d , o o > o O . 4 . 4 4 : f o , , = * 1 5 O 3 L eXX = g L 9.o.$.s.h.",
"m.^.OX^.A R W R C q.e.].@X].<.<.8 - * = o + > . + > = = > = = > O 6 = = 6   h ].t.5 : 6 = k $.J q.&.",
"p.~.~.B.9 9 c 9 J R o 1 m #.U r.n 4 1 3 1 + > + + $ $ > > 1 ; 1 = 5 O + 0 O A V.Z O O 6 = = h l m l "
};
