/* XPM */
static char *a4aa9432c8954193c70c4c7450c1be9fIBJ3RKCJ50lsIQ6b[] = {
/* columns rows colors chars-per-pixel */
"50 50 134 2 ",
"   c #454B93",
".  c #494F97",
"X  c #494E98",
"o  c #4C519C",
"O  c #50569F",
"+  c #5F45AF",
"@  c #5E48AF",
"#  c #4F55A1",
"$  c #5156A3",
"%  c #5459A6",
"&  c #5C52AF",
"*  c #565BA9",
"=  c #595DAD",
"-  c #5F4CB1",
";  c #5C5EB1",
":  c #615CB6",
">  c #645FBA",
",  c #5C62AD",
"<  c #5D61B2",
"1  c #6064B7",
"2  c #666BB3",
"3  c #6A6FB1",
"4  c #6366BA",
"5  c #666ABE",
"6  c #6E72BA",
"7  c #627CBD",
"8  c #787CBA",
"9  c #6E5DC5",
"0  c #705FC8",
"q  c #6F62C6",
"w  c #6A6DC4",
"e  c #6E6CC9",
"r  c #7163C9",
"t  c #726BCD",
"y  c #6776C2",
"u  c #6C74C6",
"i  c #667DC2",
"p  c #6B7AC6",
"a  c #6E72C9",
"s  c #6D7CCB",
"d  c #7274CE",
"f  c #7178CD",
"g  c #756DD1",
"h  c #786CD4",
"j  c #7476D1",
"k  c #7877D5",
"l  c #7679D4",
"z  c #797AD6",
"x  c #777CD9",
"c  c #7A7CD9",
"v  c #7B7EE0",
"b  c #7F7FEB",
"n  c #8E5DFB",
"m  c #8377EF",
"M  c #817BED",
"N  c #8B65F7",
"B  c #866FF3",
"V  c #8968F6",
"C  c #8B63F8",
"Z  c #8572F1",
"A  c #7E81BD",
"S  c #658BC3",
"D  c #6C84CB",
"F  c #6B89CA",
"G  c #6494C5",
"H  c #6B93CD",
"J  c #679AC9",
"K  c #6F8AD0",
"L  c #7283D3",
"P  c #718AD2",
"I  c #748DD9",
"U  c #6E95D2",
"Y  c #6E9FD6",
"T  c #7097D8",
"R  c #739BDE",
"E  c #5EB2C2",
"W  c #5FBAC5",
"Q  c #64A3C7",
"!  c #61AEC5",
"~  c #67A4CB",
"^  c #69A3CD",
"/  c #65ACCB",
"(  c #68ACCF",
")  c #60B5C5",
"_  c #65B5CC",
"`  c #64BCCE",
"'  c #6CA2D3",
"]  c #6BACD6",
"[  c #6EA6D9",
"{  c #6DA8D8",
"}  c #70A2DB",
"|  c #67B7D1",
" . c #69B2D3",
".. c #66B9D0",
"X. c #7C87E7",
"o. c #7A8BE5",
"O. c #7E83E9",
"+. c #7694E1",
"@. c #7890E3",
"#. c #7598E0",
"$. c #5DC4C4",
"%. c #5ACCC2",
"&. c #5DCCC6",
"*. c #5CCFC6",
"=. c #5FC7C8",
"-. c #5FC8C9",
";. c #5ECBC8",
":. c #5FCAC9",
">. c #5FCCC8",
",. c #5AD2C3",
"<. c #5AD5C3",
"1. c #5BD2C4",
"2. c #5CD0C5",
"3. c #62C3CB",
"4. c #60C6CA",
"5. c #61C6CA",
"6. c #62C1CC",
"7. c #62C2CC",
"8. c #60C8C9",
"9. c #898DC6",
"0. c #A3A6D3",
"q. c #A6A9D0",
"w. c #AAAED3",
"e. c #B6BEDB",
"r. c #C1C6DF",
"t. c #C4CCE1",
"y. c #C8CAE3",
"u. c #CDD0E6",
"i. c #D0D3E8",
"p. c #D1D8E8",
"a. c #D5DAE9",
"s. c #DADEEC",
"d. c #DEE2EE",
"f. c #E1E3EF",
/* pixels */
"                                                                                                    ",
"                                                                                                    ",
"      X         X     .     X   X         X                         .       .   X                   ",
". X X X X . .   X X X X     X X X X X   X X o X     o o o . .   o   o       . . X X .   X X o .   . ",
"o X o X X X o o o o X X X o X o X o o X o o o o o o o o o X o X o o o o o o o o o o o o o X o o X o ",
"o o o X # X o o o o o o o o o o o o o o o o o o o o o o o o o o o o o o o o o o o o o o o o o o o o ",
"# o o O o # # o o o o o o $ o o o # o o o o o o o o o o o o o o o o $ o o o o o o o o o o o $ o o # ",
"$ $ # $ $ # # # # $ $ # # $ O $ # # $ # $ # $ $ $ # # $ $ $ # # # # # o $ # # # # # $ $ # # # # $ $ ",
"$ $ $ $ $ $ $ $ $ $ $ $ $ $ $ $ % # # % $ # % # $ $ # $ $ $ $ $ # % $ $ $ $ $ $ $ # $ $ $ # # # $ $ ",
"% % % % % % % % % % % % % 3 q.8 % % % % % % % % % % % % % % % % % % % % % % % % % % % % % % % % % $ ",
"% % % % % % % * % % % % % w.f.r., % % % % % % % % % % * % % % % % * % % % * % % % % % % % % % % % % ",
"* * * * * * * * * * * * 2 y.d.p.8 * * * * * * * * * * * * * * * * * * % * * * * * = * % = = % = = = ",
"= = = = = = = = = = = = 2 t.s.a.A * = = = = = = = = = = = = = = = = = = = = = = = = = = = = * = , = ",
"= = = = = = = = = = = = < e.d.i.6 = = = = = = = = = = = = = = = = = = = = = = = = = = = = < = = = = ",
"; ; < = < = < , ; ; < = , 9.u.0.< = < ; < = = < ; ; & & ; < < , < < = < < = = < < = < < < < < < , ; ",
"< < < < < < < < < < < < < < 6 1 < < < < < < < < < ; + + ; ; < < < < < < < < < < < < < < < < < < < < ",
"< < < < < < < < < < < < 1 < < < < < < < < < < < < < @ @ ; ; 1 < < < 4 < 4 < < < < < < 4 < < < < < < ",
"4 4 4 < 4 1 5 < 4 4 4 < 1 1 1 1 1 1 1 1 4 < 4 4 < 4 - - 4 1 1 4 4 < < 4 4 < 4 < 4 < 4 < 4 < 4 4 < < ",
"4 4 4 4 4 4 < 5 4 4 4 4 4 4 4 4 4 4 5 4 4 4 4 1 4 4 : : 4 1 4 4 4 4 5 < 4 4 4 < 4 4 4 4 4 4 5 < w < ",
"7 7 5 4 4 4 4 5 4 4 5 4 4 4 5 4 4 4 4 5 5 4 4 4 : 4 4 > 5 4 4 1 4 4 4 4 w < 4 w 4 4 4 4 4 4 4 5 w w ",
"%.%.E 7 < 5 5 5 5 5 4 5 5 5 5 4 5 5 4 5 5 5 4 5 > 4 4 4 5 4 5 5 5 4 5 4 5 5 5 5 e 4 < w 4 w < 5 < w ",
",.,.,.$.A w 5 5 5 y w 5 5 5 5 w w 5 5 5 5 5 5 w w 4 w 5 w 5 w 5 4 w > w 5 5 5 5 w w w < w 5 5 w e < ",
";.*.*.*.W y 4 w w w w 5 w 5 5 w w 5 w w w w w 4 w w w 5 w w w 5 w 4 > w w w w 5 w w w w y ! E i w w ",
";.;.;.;.;.G w w w w w w w u w w w w w w u w w w w w w w w w w w w w w w w w w w y w w w Q &.&.E G S ",
"4.4.4.4.;./ y w e u w e w u e e w u e u u w w a w w w e u e w e e e u u w e e u w a w D ..-.,.<.,.,.",
"7.` ` 7.7.` s w a a a u a e u u a e u a e a a a u e u e a u a u u a u e u u u e a e s Y ..*.*.*.,.*.",
"` ` ` ` ` ` U s a a a a a a a a a a a a a a a a a a a a a a a a a a a a a e d u a a U | -.*.-.-.-.;.",
"` ` ........| ( D d d d d d d d d d d d d d d a d d d d d d d d j a j a a j d d a x #.| =.-.-.-.-.-.",
" .|  .|  . . .| ' d d d j a j f d d d j j d d d d a d d d d d d j j a j e j j j l x I _ =...` =.` -.",
" .]  .]  . . . .] K j l l j l f j j j j j j j l l l l l j j j j j j j j j j j j l D U ..` ..` ` ....",
"] ] ] ] ] ] { { ] { P l l l l l l l j j j j l l j z j l l l l l j l l j l U W ^ K ( ................",
"[ [ { [ [ { { { { [ [ K a j l z z z z z e e l z l z l z z z j t j l l k U =.;.*... . .]  . . ...` =.",
"[ [ [ } [ [ [ [ [ [ ..*.) p j t j k j j 9 9 k z z z z c z t q 9 9 t F D ] 7.3.3.`  .] ] ] ] 7.2.,.,.",
"R } R R R R R R R ] ;.;.;./ e 9 9 0 q g 9 9 k z k z c c z 9 9 9 9 e ] _ _ ` ` ` 7.]  . .{  .4.*.;.-.",
"R #.R R #.R R ] |  .W ..` ` s 9 9 9 r g 9 q g q q r r r g r 9 9 9 D ] ` `  . . .| {  .{ } ` 4.4.-.-.",
"+.#.#.#.#.#.R ] ..` | | |  .H e q w q j 9 q t r 9 9 9 0 t r 9 9 e ( |  .R R } R R R R R { ` ` ` ` ..",
"@.@.+.+.+.o.] |  .7. .] ] { { | ) ;.! L 0 r g 0 r 0 9 9 g r 0 0 c R ] [ R { { ] { R R } | ` | |  ...",
"] #.o.o.o.+.{  .] { { .. .[  .>.;.*.8.W a 0 g 0 0 q r u L r 0 t R R [ ] ] ] #.[ } { R ] } ] ] ]  . .",
"%.` +.o.o.+.@.[ { [ ] R {  .W 7.7.7.7.7.~ F ~ D r 0 D 4.8.J r t L I I +.R +.+.#.R R R } R { { { [ { ",
";.4.[ O.X.R R [ { [ ] #.[ ] ..............W =.4.s t / ..` ` s t r g v o.o.o.o.o.o.R } } R } } } R [ ",
".... .R O.O.X.X.X.X.X.X.o.{  . . .]  . .]  .;.;./ s { ] ] { ' / ~ ] #.O.X.O.O.O.X.R R R R R R R R R ",
" .]  . .+.X.b X.O.b M M X.[ [ [ { { [ [ [ ] ..7...T R R #.[ | ;.;.:.7.@.O.O.O.O.o.o.+.+.o.R +.o.@.#.",
"[ [ [ { { { #.R +.Z b X.@.#.#.} R R } #.[ .. .] ] R @.#.R [ 7.;.7.` 7.[ b b O.O.o.o.o.o.} ` | +.o.o.",
"[ [ #.#.#.@.b b M M o.+.+.+.+.+.+.@.+.#...;.7.[ ..` #.R ] {  .......] { O.B O.O.X.X.X.+.4.4.8.} o.O.",
";.4.[ o.@.o.O.B B O.o.X.o.X.X.@.#.R o.#....... .` =.{ +.#. ...{ 7.7.{ [ X.b b b b 9.M R | |  .] #.R ",
" ... .X.X.X.O.b B b O.O.O.O.O.X. .W [ [ { { [  . . . .7.7...7.` ....[ #.{ o.B b B Z X.R } } } { ....",
"7... .#.b Z b Z B b Z b b O.] { ]  . .{ R #.R .. .R {  . .]  ... .#.[ ..7.} O.b B O.+.+.+.+.+.| ` ] ",
"] ....{ b B Z B B V Z Z B X. ...R #.+.....#.R ..{ @.R { #.+.#.#.R [ ..] [ } | O.B O.X.X.o.] } { { ..",
"{ R #.@.O.N N N N V @.#.@.+.[ ] [ X.#. .] [ R ] R X.[ ] +.X.@.[ R ]  .#.[ [ R R O.b B O.} [ [ [ R ] ",
"@.b Z M Z n n n n N b O.O.b O.b O.b b b O.O.O.O.b b b b b b O.O.O.O.o.O.O.O.b O.B C C b O.b O.R O.o."
};
