/* XPM */
static char *be505803356ad53f97fd649db6613669_50x501675699350[] = {
/* columns rows colors chars-per-pixel */
"50 50 195 2 ",
"   c #015B0A",
".  c #036B0C",
"X  c #0E6717",
"o  c #066418",
"O  c #066A1E",
"+  c #0A6C1D",
"@  c #026A13",
"#  c #087315",
"$  c #027817",
"%  c #04731A",
"&  c #0B741C",
"*  c #057A1A",
"=  c #0B7D1D",
"-  c #027415",
";  c #147F1F",
":  c #14701B",
">  c #0B6D23",
",  c #116F21",
"<  c #067320",
"1  c #0E7521",
"2  c #067D22",
"3  c #0D7C23",
"4  c #0D7329",
"5  c #0D7A29",
"6  c #067A29",
"7  c #127423",
"8  c #127C25",
"9  c #1A7C25",
"0  c #12772B",
"q  c #157D2A",
"w  c #1B7D2C",
"e  c #187324",
"r  c #0F7833",
"t  c #147C32",
"y  c #1C7D32",
"u  c #307A3D",
"i  c #0F821E",
"p  c #13811F",
"a  c #19831F",
"s  c #0D8224",
"d  c #0C8128",
"f  c #138425",
"g  c #198325",
"h  c #168A26",
"j  c #1B8A26",
"k  c #15842B",
"l  c #1B852C",
"z  c #158B2B",
"x  c #1B8C2D",
"c  c #1D912E",
"v  c #0D8233",
"b  c #148534",
"n  c #1D8531",
"m  c #168B31",
"M  c #1C8C32",
"N  c #1C8D39",
"B  c #1A883D",
"V  c #179032",
"C  c #1E9333",
"Z  c #1F9936",
"A  c #1F973B",
"S  c #22812C",
"D  c #228B2D",
"F  c #29852E",
"G  c #219027",
"H  c #22912F",
"J  c #2A932E",
"K  c #238533",
"L  c #2D8735",
"P  c #228D34",
"I  c #2A8C34",
"U  c #25863A",
"Y  c #29873C",
"T  c #258C3A",
"R  c #2B8D3B",
"E  c #3A8735",
"W  c #328B35",
"Q  c #338C3A",
"!  c #239434",
"~  c #2B9435",
"^  c #249935",
"/  c #2B9B36",
"(  c #24943B",
")  c #2A943B",
"_  c #259A3B",
"`  c #2B9B3C",
"'  c #319D37",
"]  c #33943C",
"[  c #38923B",
"{  c #329C3C",
"}  c #339035",
"|  c #2CA13D",
" . c #32A13D",
".. c #39A63F",
"X. c #43933E",
"o. c #1A8E47",
"O. c #1F9247",
"+. c #2E8F42",
"@. c #318F43",
"#. c #3F864C",
"$. c #368A4F",
"%. c #3A8D4B",
"&. c #269741",
"*. c #2B9442",
"=. c #269A41",
"-. c #2C9C43",
";. c #2E9C49",
":. c #339543",
">. c #329C43",
",. c #379549",
"<. c #369D4A",
"1. c #3B9D49",
"2. c #3B9A46",
"3. c #3E8A59",
"4. c #3E9454",
"5. c #2DA243",
"6. c #2EA449",
"7. c #33A344",
"8. c #3BA444",
"9. c #34A946",
"0. c #3AAA46",
"q. c #34A44A",
"w. c #3AA54B",
"e. c #35AA4A",
"r. c #3BAB4C",
"t. c #3CB14D",
"y. c #3CA551",
"u. c #37AA50",
"i. c #3BAC53",
"p. c #3EB253",
"a. c #408546",
"s. c #409841",
"d. c #4B904F",
"f. c #43944F",
"g. c #439553",
"h. c #4C9C5B",
"j. c #4B9B56",
"k. c #53995C",
"l. c #42A44B",
"z. c #42AC4D",
"x. c #43B047",
"c. c #42B24E",
"v. c #4AB74E",
"b. c #43AD53",
"n. c #48AC52",
"m. c #4EA05E",
"M. c #41AE59",
"N. c #48AB58",
"B. c #42A553",
"V. c #42B353",
"C. c #4AB554",
"Z. c #47B956",
"A. c #4ABA56",
"S. c #44B559",
"D. c #49B55A",
"F. c #46BA5B",
"G. c #4CBC5C",
"H. c #489164",
"J. c #5B9F61",
"K. c #4DA664",
"L. c #54A462",
"P. c #5CA665",
"I. c #57A768",
"U. c #5CAB69",
"Y. c #53A864",
"T. c #4CBC61",
"R. c #50BD60",
"E. c #60A76D",
"W. c #60B16F",
"Q. c #69BC78",
"!. c #63B577",
"~. c #4FC15D",
"^. c #56C05C",
"/. c #4EC262",
"(. c #56C868",
"). c #52C469",
"_. c #B4D0BA",
"`. c #B8D4BE",
"'. c #BED7C1",
"]. c #BFDBC5",
"[. c #C3DDC7",
"{. c #C2DEC8",
"}. c #D6D6D6",
"|. c #DBDBDB",
" X c #C6E0C7",
".X c #C5E1CB",
"XX c #CAE3CE",
"oX c #CBE7D1",
"OX c #CCE8D1",
"+X c #D0ECD6",
"@X c #E2E2E2",
"#X c gray92",
"$X c #ECFFEE",
"%X c #ECFFF1",
"&X c #FEFEFE",
/* pixels */
"O 1 N *.k 2 q l @ & L T l ( &.k < n ;.( P P q n ( P k ( N ;.6 A x / x f 8 8 T q *.q.q T n q x S T +.",
"t <.*.q b 8 % 8 >.) ) K l :.q.b 5 *.&.y.<.& l l -.>.n k N ( b 2 & q.V.8.k % b P *.:.N w l l K P +.n ",
"0 Y ,.( b ( >.( I ) ] P l -.i.6.k k *.M -.n P -.w.7.>.i.).A =.m _ { -.` T k N ( *.*.>.w ) ) _ >.w.-.",
"w y w.N.P ( w.` ` ] >.>.n M -.6.&.N i.3 ( >.P D x 7.w.k &.( i.&.7.! ! _ ! f T M.n i.S.q P b.n.P =._ ",
"  n R ) w.7.` r.z.~ P >._ A =.5.A u.u.V e.) 8.l ) _ w.) ( q.e.i.r.V f ^ 6.q.( A ;.;.k e.;.k n -.B b ",
"e Q :.P -.7.D f { l P 8.-.V Z Z =.;.p.Z _ _  .r.{ # g r.-.n % ( h 6.F.` z M A _ k e.k N k P ;.M &.*.",
"X 9 L ( ` 8.5.H / ^ 7.b.` z s s e.=.~.d k 5.f ` 8.D D _ l n k z | 9.r.V m 5.Z N m ;.A &._ ( -.>.R ,.",
"  L L ) V.^ = 7.r.{  .0.9.e.5.z d 5.5.V ^ r./ ; ` / / V.5.z ) ! 6.Z 5.( 5.e.Z z _ 5.p.q.i.q.-.-.] ] ",
"Q y 9 [ x ! c 9.c.H | 0.! r.t.e.6.Z Z s h ! 7./ r.C.C.^ >.C.F.z z 5.6.p._ 5.9.5.e.e.S.e.( 2 e.&.8.L ",
"L :.8.2.9.| | | 5.c / / ^ e.e.5.5.6.Z | ! c.r. . . .V.0.7.( -.( h V 5.t.Z Z 9.V Z 5.! f &.F.M y.T 9 ",
"9 w ] P _ V | Z / ^ r./ r.e.6.Z s A Z u.h C  .G.7.x ^ { e.! C s z _ F./.6.Z t.V _ ` s k z m d k b b ",
"E :.w.( A 5.9.| t.t.0.! ` ` 5.e.Z A z p.F./ i.A. . .r.q.-.^ 5.=.z A e.e.9.Z e.z _ 5.7._ m 3 q.k 6 v ",
"w s.<.! z 9._ s ` e. .q.{ ^ ! i.A =.V r./.q.0.| / _ | V z z =.A z _ A C V.t.9.H j ^ i.f n r.&.5 5 m ",
"Q R n ) C 5.Z Z z 5.) V.7.P M r.d 5.z x z x l g p._ Z Z =._ 6.5.s _ C h ^ H ^ c e.| q.S.-.b.q.N &.=.",
"Y w 9 M m z V | 5.e.~ ~ P g ;.S.;.;.k * M ! j l ( x 5.6.=.V A 6.A e.p.e.h c  .| ^ J j G.7.M q.*.*.&.",
"7 ) <.8 z C _ $ 9.e.q.` ) g ) ( _ _ S._ Z.f ! r.! c 5.6.p.5.=.V e.` 5.t.i / Z.^ x r.r.f b.w.b &.B t ",
"K 2.w.l.' G ~ w.8.` w.R P P q.! C | | ~. ./ ..t...0.j t.9.` _ 5.5.| 0.9.^ ^ t. .......| 8.9.b.;.O.o.",
"n ) n.C.} J ..' g w.,.) 8 >.8.7.0.| / /  .G x.v..... .0./ c z 9.c H h j ..^ | v.| t...Z P e.p.( b B ",
"n <.] D J D g G ~ ) n b 8.>.` 8.| | | J ..j  .0. . . .g x S.5.Z t.^ 9.c.| c ..Z | ..| | g 7.q.x n l ",
"g ,.g . J  .a D n.P g l D.>.( g D t.x.t. .G G ~ v.p p H r.p._ -.6.Z.F.e.9.^ ......| ^ t.) ! ` ( T I ",
"4 g T D { ^.C.8.z.w.) w.( r.) g ! Z.R.r.8.>.~ ~ z.x P w.r.( ) q.&.q.6._ ^ l | 7.t.Z _ r.r.P ) ) P U ",
"+ K >.l H c.x.z.z.7.q.y.) <.w.` x _ S.P b.r.n.) R { w.w.R ;.q.&.u.b -.p.9.C 9.! | | 8.{ r.( -.( n w ",
"0 *.>.# p J j 7.8.M ( ) b.` 7.` l q w.l y.<.B.) >.9 R M.*.>.T q.&.&.&.u.).5._ q.s 9.9._ { ) ( I F L ",
"U 9 <.P p  ./ ! 3 ) N ( ` r.P D w.( y.( P P ) T ) q <.w.0 1.n <.-.N &.&.( m 5.! - 0.7.` ~ ^ z ~ s.X.",
"> q :.b.i.! f ! ^ 2 ( T.M ( 8._ ) T y.l i.q.( n b 9 l ) y.,.P ) y.b &.i.u.5 x x f r.w.{ r.l ( 2.} E ",
"> t *.q.r.q./ | 6.A M M P ` w.G.7.N k T &.y.n T y.w.<.<.y.B.w.:.&.&.;.p.A A ( _ 7.e.e.^ S.q.x & Q Q ",
"4 q n g _ t.9.9.A 5._ Z i.r.7. .>.-.-.M.b ( T M.q.>.>.<.] w.l.*.3 m ( 6.k ( 6.r._ ( ` f C >.P P O > ",
"4 0 b q ) p.| _ 5.5.6.O.q.e.w.x x -.T.e.3 O ( i.i.*.<.M.8.>.l.w.( m &.m k h i.F.S.` ! = l e.<.b y y ",
"> 4 T &.r.S.C z 6.5.6.A -.` 7.! _ ` A.-.M * &.( w.) 8.r.) J ..>.S.e.q.j M ! t.r.7.7.( / M 7.y.k Q [ ",
"r r *.( 5.p.V | V 6.5.A V.7.! ` r.e.e.r.7.V &._ q.e.i.7./ l.C.x.r.F.6.c h 9.9.! x 0.9.w.P P u.) W } ",
"t r ;.n V 6.Z p.| 6.A _ e._ ! c. .e.C ` Z Z Z _ z ^ ~ H J ..l.' H 9._ c h 6.^ l G.V._ ` T q.*.b l l ",
"0 t y.C x 9.Z p.u.( &.S.>.) ~ 9.| e.z $ V ` 6.C M M x ` x...' J c ^ | c | c ^ ! 9.) P x f _ k m ;.>.",
"+.+.+ * 7.( q.R.8.^ z.D l.D ~ 8.| 5.5.$ e.C ` | k ( 7.r.p.Z z $ c | z | h _ S.-._ q _ b.M ( ! k t r ",
"l *.P & g P 0.{ z.) >.' ..S D l.^ 5.| V _ | ) ` -.5.( e.5.z d m C t.t.5.k ` w.( P l l 7.e.5.s M k t ",
"K R >.T D P V.r.{ z.z.z.l.C.w.n.i Z | 9.5.9._ ! >._ e.f 9._ 6.` h ^ e.e.5.5.V ` &.A ( -.C V.e.x } / ",
"0 q R P K g >.e.g | / ! ~ V.8.~ | | 9.c c ^ r.7.f M G.h ` V 6.e.| | Z 5.p.e.Z 9.` _ e.-.f r.z.D ....",
"7 n R 1 l x ~ ~ r.8.! h / ` 8.` ~.t.9.c f c c.r.V.! i ( 9.S.z C 0.~.H j e.9.e.5.C ^ ! _ ` { g ~ ~ ~ ",
"P R >.S >.) ` e.Z.t.| j e.` r.5.t.t.9.| h ` c.r.7.~ x ^ ^ 5._ p...t.H H r.Z | Z 6.! l P ` w.I ] { ] ",
"y 0 >.) ) P ` r.x ` _ h | C 5.j 9.| | h p / c.V.j ^ ( * ` ^ p./ .. .^ | V.Z Z Z 9.| _ ^ P C.n.} ] ] ",
"X 7 B.T & P e.! _ _ Z 5.r.V | q.^ c 9.i / c 8.H / r.q. .e.^ 7._ v.c.x.J t.t.9.| V | _ 8.z.z.D ] ] [ ",
", R :.n & ) ( _ ^ C | Z 5.e.6.5.^ x c ! ` r. .` r.7.x (.9.x f x { 8.) ^ c t.e./ | t.x { ) I l.l.y K ",
"e + Y K + g _ ^ h z | | e.p.Z i 9.| r.c.r. .x P V.{ >.e.` p.M z 8.z.z. .!  .5.^ Z ~.( ` ) ~ n.F L y ",
"R 7 2.y.w.) <.! h r./.6._ e.5.z h e.~.e.0.R.z.~ 7.>.b.7.-.p.&.C { w.z.) x l H / C r.>.P ) ~ w.U +.Y ",
",.U K w :.( z ` e.p.p.` _ u.6.` _ | r.6.7.e.7.7.e.>.P x C k -.C ( { r. .8.H _ >./ g D g R T R P w 9 ",
"@.@.U Y >.<.M 8._ ! 8.q._ l z w.q.` 6./ ( ) -.b.z.P 8 x 6.( ;.z f z -.>.n.{ ~ I 8.9 & n >.K P 4 P ~ ",
"o , U 2.K ) l P z.) ! ^ r.G.>.n s x _ l ; l ) w.<.l ) N 6.u.;.M m N M ~ z.1.] [ [ l.R N.M.N M.k 7 9 ",
"Y w K T K T ~ 9.P ) ( # 8 { ` l >.k l ( n 2 & *.q.R <.k k ( -.u.m N 2 8 D ~ S W : L Y 1.n k -.4 r t ",
"E.H.a.u P.j.%.L.U.m.h.f.f.j.h.U.Q.Y.m.h.I.W.L.K.J.L.j.I.Y.g.H.%.4.K.g.h.P.E.d.k.J.a.J.J.g.!.4.$.3.H.",
"%X%X$X$X$X$X$X$X$X$X$X$X$X[.'. XOX[. X.X[..XoX[.oX.X{.+X%X+X.X]._._._.`.'.$X$X$X%X$X%X%X%X%X%X%X%X%X",
"&X&X&X&X&X&X&X&X&X&X&X&X&X}.}.}.@X}.|.@X}.|.@X|.|.|.}.@X&X#X@X@X}.}.}.}.}.&X&X&X&X&X&X&X&X&X&X&X&X&X"
};
