/* XPM */
static char *_63a0589e0574d3c833e0179aee75be1LbWDFz4o1WsdLJx5[] = {
/* columns rows colors chars-per-pixel */
"50 50 256 2 ",
"   c #2D2407",
".  c #36240C",
"X  c #2E2812",
"o  c #3C2B1C",
"O  c #372916",
"+  c #3D331B",
"@  c #3B3818",
"#  c #31370A",
"$  c #3A2F27",
"%  c #3C3826",
"&  c #3F3830",
"*  c #44331B",
"=  c #463919",
"-  c #4B3319",
";  c #443423",
":  c #433A24",
">  c #4B3C24",
",  c #453B2B",
"<  c #4B3D2B",
"1  c #473429",
"2  c #533E2A",
"3  c #523B27",
"4  c #443B32",
"5  c #473A35",
"6  c #523D32",
"7  c #452C24",
"8  c #38460B",
"9  c #2C5907",
"0  c #36580C",
"q  c #3A4717",
"w  c #2B5913",
"e  c #395717",
"r  c #2F4119",
"t  c #39680B",
"y  c #3B6616",
"u  c #36700B",
"i  c #3C5424",
"p  c #394928",
"a  c #3F7320",
"s  c #484A0C",
"d  c #464618",
"f  c #54471B",
"g  c #4C531B",
"h  c #465916",
"j  c #555819",
"k  c #49570D",
"l  c #695A1D",
"z  c #476A0A",
"x  c #45750B",
"c  c #59760E",
"v  c #466919",
"b  c #56651A",
"n  c #467217",
"m  c #537618",
"M  c #5C6A08",
"N  c #687902",
"B  c #676617",
"V  c #667914",
"C  c #747B19",
"Z  c #70720D",
"A  c #4D4124",
"S  c #4C432C",
"D  c #474928",
"F  c #544325",
"G  c #54432B",
"H  c #544C2B",
"J  c #5B4B2C",
"K  c #5A4628",
"L  c #4A5828",
"P  c #56582A",
"I  c #4A4233",
"U  c #4C443B",
"Y  c #4D493A",
"T  c #4A4736",
"R  c #544433",
"E  c #544C34",
"W  c #5A4B34",
"Q  c #53443C",
"!  c #544D3C",
"~  c #5B4C3B",
"^  c #5A453A",
"/  c #4A5836",
"(  c #575738",
")  c #644D2C",
"_  c #664A29",
"`  c #65532D",
"'  c #695728",
"]  c #73582D",
"[  c #624D34",
"{  c #644D38",
"}  c #64543C",
"|  c #675736",
" . c #745A36",
".. c #4B6725",
"X. c #576726",
"o. c #4A7522",
"O. c #557928",
"+. c #4B6238",
"@. c #576838",
"#. c #5A7634",
"$. c #64692B",
"%. c #667828",
"&. c #68693A",
"*. c #79613A",
"=. c #64763B",
"-. c #77702F",
";. c #443A42",
":. c #4C4845",
">. c #544C43",
",. c #5C4C43",
"<. c #574B49",
"1. c #4E5349",
"2. c #545244",
"3. c #5C5344",
"4. c #5B544B",
"5. c #5B5B4C",
"6. c #585747",
"7. c #4E4852",
"8. c #5B5551",
"9. c #5C5A54",
"0. c #585556",
"q. c #574C50",
"w. c #635B42",
"e. c #62564B",
"r. c #635B4D",
"t. c #695745",
"y. c #635B54",
"u. c #645C5A",
"i. c #675955",
"p. c #6A5547",
"a. c #5B6746",
"s. c #5B6557",
"d. c #546F45",
"f. c #676648",
"g. c #756548",
"h. c #667647",
"j. c #6C6552",
"k. c #64635C",
"l. c #6B645C",
"z. c #6C6B5D",
"x. c #666956",
"c. c #746454",
"v. c #746B5C",
"b. c #786955",
"n. c #697758",
"m. c #747757",
"M. c #777847",
"N. c #645C62",
"B. c #6B6663",
"V. c #656B64",
"C. c #6C6B64",
"Z. c #696767",
"A. c #736C63",
"S. c #736D6B",
"D. c #786A6A",
"F. c #6D726C",
"G. c #6D7163",
"H. c #737265",
"J. c #74736C",
"K. c #7B746C",
"L. c #757A6B",
"P. c #7C7A6D",
"I. c #787864",
"U. c #766E71",
"Y. c #6E7472",
"T. c #757473",
"R. c #7B7573",
"E. c #767A73",
"W. c #7B7B73",
"Q. c #7C7B7A",
"!. c #7A757A",
"~. c #6C6975",
"^. c #5F5A60",
"/. c #85673D",
"(. c #80753F",
"). c #826F59",
"_. c #85755A",
"`. c #846F47",
"'. c #837D6E",
"]. c #847669",
"[. c #827C74",
"{. c #837C7A",
"}. c #8A7D7B",
"|. c #857875",
" X c #907E7A",
".X c #51880B",
"XX c #4D8410",
"oX c #698708",
"OX c #768A0A",
"+X c #78950D",
"@X c #668216",
"#X c #788A15",
"$X c #779316",
"%X c #7FA209",
"&X c #798626",
"*X c #758A30",
"=X c #588132",
"-X c #778755",
";X c #6F834A",
":X c #7C826B",
">X c #7B8364",
",X c #7F8274",
"<X c #7B8479",
"1X c #7B9467",
"2X c #849916",
"3X c #879713",
"4X c #8BA712",
"5X c #A6AD17",
"6X c #969826",
"7X c #868E2F",
"8X c #91A225",
"9X c #A6AA25",
"0X c #ABAF2A",
"qX c #A19D31",
"wX c #86895A",
"eX c #928D4C",
"rX c #86856C",
"tX c #838275",
"yX c #8A8376",
"uX c #84827B",
"iX c #8B867B",
"pX c #8D897D",
"aX c #858977",
"sX c #94887B",
"dX c #8D9071",
"fX c #A9A95A",
"gX c #7F7C81",
"hX c #857C82",
"jX c #7A8380",
"kX c #848383",
"lX c #8B8582",
"zX c #8C8B84",
"xX c #8D8B8A",
"cX c #868687",
"vX c #938C83",
"bX c #928D8B",
"nX c #998C86",
"mX c #8D9289",
"MX c #939284",
"NX c #94948B",
"BX c #9A948B",
"VX c #989989",
"CX c #9B9493",
"ZX c #9B9B93",
"AX c #9A9997",
"SX c #928E91",
"DX c #A49B97",
"FX c #A49E8E",
"GX c #9EA394",
"HX c #A2A29C",
"JX c #A4A597",
"KX c #B2A89F",
"LX c #A7A6A4",
"PX c #B1AAA9",
"IX c #B1B4AC",
"UX c #A59AA2",
/* pixels */
"Y >.` l.LXzX[.K.~ f V.tXuXW.E.|.!.K.K.Q + <.vXZXtXZ.`.9X-X|.I.w.[  .w.Q.[.R.K.K.9.o K ~ a.l.q.>.2.4.",
"R J  . .A.E.S.F.W 3 3.[.!.I.L.S.L.F.1.S z.UXLXVXdXI.x...u =.>X[.I.[ _ r.%.h.F.1.* H }.j.o o o o * ; ",
"].(  ./.v.E.S.5.G } I <.N.B.V.B.4.! ; 3.1XIX>Xa.f.T.D.s.v @.I.[.T.k.S B OXX.( 8 L h.d.#.d O = e.K.'.",
"R.z.{  .).W.C.S t.m.s.6 o @ ; * 6 % * % XXm.@.C.<XgX[.|.<XtXpX{.J.J.V.-.N 8 @ z.AXlXU.1.D g &.-XNXlX",
"H.E.z.` b.E.C.,.f.n @.p.J H [ b.P.'.Q j u m C.}.uXE.,X{.W.W.{.F.C.C.R.h.q 5 aXDXbX}.{.f.0 c N &XpXW.",
"T.A.U.J g.H.@.H L u h 3 `.vXDXbXT.xXA.D t z.!.K.K.E.m.L.R.T.n...R.Q.I.8 % pXDXlXW.cX;X.X.Xc $.kX{.W.",
"U.A.S.H g.L.y e h y H } ] D.HXaXtXx.E.6.# >.J.V.A.V.y.q.<.f.u y 3.f.L   i.DXlXtXP.vXh.i t h.kXuXW.[.",
"J.P.C.W p.z.h 9 P aXZXE.| 3.Z.B.S.+.#.#.B ' > U 4 : % = 1 P y h 8 8 = = 4.lXW.W.R.aXS.0.X M.pXK.E.E.",
"9.3.4.^ C 2Xc u x -XHXmXi.` > % 1 v u 8X0Xl ' W t.( z v -.*XX.@.D D  .] O R k.k.D.J.}.V.@ #.0X`.l.V.",
"D > < > g OX+XL O.zXmXMXtXy.g.f.t.( y B ' c.sXMXKXn.9 o.0X#Xw n #.r.' `.K.I $ 1 5 p :., 3 q 8X@Xo.n ",
"z I.vXw.O . = k.SXiX[.uXkXT.R.hX[.B./ = O lXIXZXVXeXm c 2X( y ..H.D.| b.HX<X9.W _ r.m.0.~ $.M z u x ",
"j.LXMXtXr.O q W {.:XW.E.}.L.F.K.J.H.( d + zXNXsX<X*X%X+X@Xs.iXaXR.J.s.W ].C.S G ] v.IXVXBXrXM #.f.E ",
"g.mXuXP.Q.k.D f i.Q.J.!.tXm.#.R.R.L.( d 7 aXkX[.<XD.f.M.M.a.B.F.H.G.O.h l.:.% I.>.3.CXpXcXkX-.x.H.>.",
"G 9.R.K.B.Z.T d h a.y.y.0.a.n j.s.( >.D * 5 u.9.4.4.1.1.0.( L / / @.u h p.I W lX! ~ uXW.K.R.Q.L.E.6.",
"K * U 9.! % X k XXx d @ o j u p q 0 F %.s < < % o - K F F R ,.W g h r K [ + < q., { k.B.G.x.i.8.4.5 ",
"w.] K 1 * R T 0 8 / 2.+./ / t ....0 3X+XrXNX[.].A.j./.rXLXVX;Xu t v q * F * W E e.K + ; % $ 1 ! ~ ( ",
"W.b./.] c.ZXL.:.7 zXIXDXMXlXD.s.y $XOX&XIXZXkXW.tXV. .sXHXDX<X=X#.S.m.e   j.ZXBXV.; 3.S o iXMXNXlXB.",
"E.!.l.| nXZXK.y.' vXUXCXpXtXuX[.0.b V MXAXtX{.'.R.8.[ sXVX}.}.tXQ.Q.a.&.8 G.LX}.e.A yXv.4 VXDXBXP.A.",
"A.J.u.H nXpXR.3.` [.NXW.E.E.!.P.A.% / xXiX!.W.|.J.k.p.D.E.P.W.R.I.#.t 0.p @.NXE.2.E bXD.: L.DXlXE.R.",
"B.W.k.E {.P.T.9.*.j.S.R.uX|.|.T.C.T L [.,X'.K.F.G.Y '  .S.J.F.H.!.O.w V V OXI.E.:.3.rXV.& 2.zXP.W.S.",
"E.B.:.A ,.! I < /._ > A.{.R.'.V.s.P d l.!.H.H.T.4.I ).| W 5 I U U T h OX$X-.S.U.> W #.+.>.8 H.W.K.J.",
"e.; R *.e.r.j.c.c.g.) e.V.k.h.&.=.! < A :.8.k.B.6 D.xXf.F J ~ 4.w.e k C *XY.T.H.< /.t y 7Xz A <.9.C.",
": j.GXKXDXNXNXSXQ.rX7X4 i q d @ , o J _.} G , I * ~ E.Y.R g.LXZX-Xu 0 C qXf.^.0.I ] z 4XOXz ; $ : < ",
") vXLXmXyX{.tXL.T._.9Xj k ' t.,.! G { zXT.] _.xXv.F I ~ 1 b.LXiXG.D 3 ( b 8 s g P $.2X3X.X-XbXP.c.} ",
") sXAXhXuXW.uXrXT.eX9X&X6XfXHXZXzXz.O 5 >.p.KXZXL.D.3.; _ b.vX,XF.,.).HXNXaXI.x.W.8X0XC t w -XW.K.3.",
"E ].0XaX!.kXbX!.F.f.#Xd eXJXBXCX'.~.v.: * c.UX1X#.uX,X} *.).W.tXJ.~ ].DXMXVXQ.U.lXrXw.X =X#.h.{.S.2.",
"J | 5XwXz.m.x.a.a.@.( . uXAXMXuX|.E.W.,.# &.pXh.t >X!.B.` m.T.A.C.Y r.kXW.K.J.C.R.L.:.s 7XhXhXK.H.>.",
") F j E a.( 6.1.<.& F 3 ].CX,XE.'.Q.R.>.+ h ;Xc y J.R.C.{ W I U 5 J | <.>.Y d.o.e a.@.b @Xm.I.H.4.I ",
"f.I.6.< & 5 : D * R _.M v.xXQ.E.uXuXB.:.d 0 @X+Xe T ! , 6 | J 3 G  .] J G H b m y N 8Xj j j :.T O = ",
"| ZX{.} S < j 3XV M.*X+X4.cXh.%.{.J.H.Q ~ ..$X+Xb L D = J '.5.3 iXy.( BXnX}.j.| j.V %X+XK W S X X * ",
"w.GXaX[.|.i.' OX4X#X4XN t.m.x O.}.K.E.Y e.w.L 2XqXyX!.c.J 4 , I.NX8.3.IXZX{.k.t.L L.MXdXdXyXK.|.l.,.",
"p.NX<XE.V.,.`.MXm.X.$Xd U n..X..U.R.E.<.* ) :XfXdXaXR.{.G.2 K A.J., c.LXiXE.k.J m.JXJXAXBXkXL.W.T.6.",
"( kXL.H.F.I ].IXlX[.B./ d P u L L L ( I > P rXAXlXpXL.}.uXH.r. .:.  K.BXhX'.k.H >XDXBXaXuX|.|.L.Z.2.",
"2 q.D.W.s.= ).bXW.K.!.H.( H ] H d = # g &.D uXlXQ.L.Q.NXW.I.t. .- E VXbXL.R.C.d D.nXW.W.E.[.[.P.H.U ",
"W f P o.L = j.s.<.y./ q.U _ wXnXyXK.I.D./ D m.T.!.K.L.H.aXW.9.*.~ 3.kXJ.W.Q.&XN ;Xn.I.P.|.E.{.x.u., ",
"{.@.w v % 6 2 d g w 0 7 D 7 A.tXE.W.R.R.8.C 5XeXA.A.B.S.G.R.5.} z.d Q 8.5 %.3X$Xn v / k.U.!.1Xv $ t.",
"a.m c +.h.z.$ = z @X$.k.0.q D ^ U U I , $.5X9XZ q X.H S 4 5 $ G L v 3 S > B b w v g o > V.T.O.t r H.",
"j.eX5X&.n.( d %.0X0XwXZ.Q x b _ '  .g.g.g.} | : $ @ # 8 k d = G n y ].NXDXlX:Xu #.i.[ f O 1 v t %.%.",
"|.W.7Xl ~.4.s 2X*XX.d.B.6.XXo.y t =.HXPXKXCXxX<Xk.  l.zXk./ &.#.9 @.-XdXAXuXuX#.h.Z.| b.g.,.d +X4X2X",
"tXZ.1 [ R T V +Xh.U.@.L n .Xt e e :.l.P.uXtXP.|.l.X D.PXL.f.+.@.@X6Xn a.kX,X{.P.J.V.{ tXuX0.g 8 d r.",
"y.~ t.yXt.[ M.+XC.pXR.B., h k + $ + * e.B.B.Z.C.9.. j.kXk.v u i &X+Xt j.gXP.K.J.lXK.D f.7.8 D i.7 ; ",
"j.c.' 8.i.{ g.rXR.].C.Y.,.3 ( d.rX{.<.: U , , ; $   , >.5.n.O.p q L / D.F.G.|.J.uXA.i w j s bXAXH.H.",
"L.b.] P [ ' ' 9.A.J.L.E.R _.PXQ.h.-X7X@XC b.pXK.z.v.4.  c.kXI.7.q D ;.e.0.9.r.^.u.y.h c 9XtXMXn.uXQ.",
"U.i.| sXyX~ p.W I <.8.I 6 FXZXbXx.c OXOXB CXGX1XZXZXL.> e.0.<.< g P H > f 3 > 3 5 % r 3X6Xv z a.E.K.",
"!.} | NXlX5.6 J } R S [ { R.uX}.#.w %.P * a..Xn hX{.A.R J S 2 ` < h.Z.) m.].rXsX[.v.$ ..o.w #.T.W.R.",
"9.3.g.NXuX4.% pXlXe.f.).} a.E.}.O.y 2.5 P z n d.R.[.Z.Q sXK.~ b.2.g W v.NXJXFXMXtXJ.S j 1.5.A.C.y.y.",
"F } c.aXE.s.E yXP.3.j.T.i.` ! V.h.t <  .5.D oX*XI.<XL.H H.4.~ aXa b &.M.&XrXtXE.Q.F.L @ 1 5 7 $ ; ; ",
"D.j.t.B.>.5 , i.1.1 G G 3 | ` 6 2 ..= *.Y f N 4X2Xx.S.Q ,.I ].J.XX.XoXOXP 4.u.9.a.P n t f L c.b.g.b.",
"tXJ.K - > G S : - K c.pXvXiXpXyXzX].f.g.| r.P j V b 1 < ' f.K.S./ M V oXr e L X.&.% q u a h.mX}.Q.E.",
"E.B.J g.sXnXsXA.W | pXDXMXpXzXzXxX}.Q.k.p.D.,.! 4 + = 6X6XU :.:.:.: f.m.'.rXbXhXK.e.A &.z.!.W.R.J.J."
};
