/* XPM */
static char *yagami__1_1675781489[] = {
/* columns rows colors chars-per-pixel */
"50 50 121 2 ",
"   c None",
".  c #01071B",
"X  c #010A1E",
"o  c #141B1E",
"O  c #010D24",
"+  c #000F28",
"@  c #041027",
"#  c #011029",
"$  c #0A162C",
"%  c #0E1A2E",
"&  c #111B26",
"*  c #121C2F",
"=  c #041633",
"-  c #071834",
";  c #0C1B31",
":  c #071B39",
">  c #091E3E",
",  c #121D31",
"<  c #182021",
"1  c #1D272C",
"2  c #1F282C",
"3  c #142034",
"4  c #1B2536",
"5  c #14233A",
"6  c #1A263A",
"7  c #1D293A",
"8  c #242D3C",
"9  c #26303E",
"0  c #051E54",
"q  c #0D264C",
"w  c #062257",
"e  c #092155",
"r  c #092459",
"t  c #0B285D",
"y  c #112C5B",
"u  c #1D2F5F",
"i  c #11305F",
"p  c #202D41",
"a  c #243345",
"s  c #2C3541",
"d  c #26364A",
"f  c #2D3B49",
"g  c #323E49",
"h  c #0E2E62",
"j  c #142D60",
"k  c #0F336A",
"l  c #113064",
"z  c #183062",
"x  c #13366A",
"c  c #163A6F",
"v  c #183C71",
"b  c #203868",
"n  c #3A464D",
"m  c #354254",
"M  c #384656",
"N  c #39445A",
"B  c #39495B",
"V  c #374B77",
"C  c #3C5374",
"Z  c #4F5B6D",
"A  c #50606E",
"S  c #516574",
"D  c #5B6C7A",
"F  c #7F7E6C",
"G  c #A70203",
"H  c #B30405",
"J  c #942304",
"K  c #C40404",
"L  c #C80102",
"P  c #D50101",
"I  c #947B1D",
"U  c #A47E0D",
"Y  c #837C51",
"T  c #827E67",
"R  c #AA8D50",
"E  c #82847E",
"W  c #A19476",
"Q  c #495D84",
"!  c #4E6188",
"~  c #647383",
"^  c #697E8B",
"/  c #767D87",
"(  c #677899",
")  c #6E7F9E",
"_  c #6C808C",
"`  c #74848D",
"'  c #6F8693",
"]  c #748491",
"[  c #74899E",
"{  c #7C919D",
"}  c #7F8FA0",
"|  c #7D8DA9",
" . c #7E96A2",
".. c #808380",
"X. c #8A8B83",
"o. c #80898A",
"O. c #8E9188",
"+. c #93968B",
"@. c #848D96",
"#. c #859197",
"$. c #899096",
"%. c #8796A6",
"&. c #8B98A8",
"*. c #8A99B2",
"=. c #96A1A5",
"-. c #9BA6B3",
";. c #9AAAB1",
":. c #9BA7B8",
">. c #9FAAB8",
",. c #9CB0BE",
"<. c #A0B2BD",
"1. c #A0AEC2",
"2. c #A5B4C4",
"3. c #ABB9CA",
"4. c #B4C3D1",
"5. c #B8C6D1",
"6. c #BDC9D5",
"7. c #BECBD8",
"8. c #C5D2DE",
"9. c #C9D5DF",
"0. c #CAD6E1",
/* pixels */
"                                                          ; O   @ # O                               ",
"                                                        8 @ O O # # O                               ",
"                  .                                     6 $ # # # O                                 ",
"                    O @                               9 6 $ + # O O                                 ",
"                      @ *                             s 7 # # # O                                   ",
"                      O # 3 8                       8 9 % $ # +                                     ",
"                        O # 3 8                     6 ; ; @ + O                                     ",
"                          # # , 4                   $ $ , + + O O O                                 ",
"                          O O # $                   $ $ # # # + @ X       X                         ",
"                          O + # # O   k             # # # + # # O         X                         ",
"                  O O + + + + # # @   c c           # # + # O O                                     ",
"                      O + # # # O q q v c c         # # # # @                                       ",
"                          O + # + y y h t x x       + # # # + O                                     ",
"                              O = x h r r t x r     # # + # O                                       ",
"                              X : l r w r y t e     + # # O                                         ",
"                                - t z j r ( b 0     + # +                                           ",
"                                  w ! ) V 5.Q 0 * @ + # +                                           ",
"                                  0 [ 7.<.9.| C D 7 + # + O                                         ",
"                                  0 *.0.9.8.3.[ ' 5 + + # +                                         ",
"                      J           z 1.6.6.+.O.2. .S - + # # O                                       ",
"                    K L P P         ..Y #.I R ,. .B # + + + # O                                     ",
"                    P P P P       4.W U ` T +.<.^ ; + # # # # O X                                   ",
"                    P P P P       2.=.X.>.=.&.;.^ d + # + + + p p g                                 ",
"                    H K P P         N @.E E ` #.a # + + + + % ' ` n                                 ",
"                      G H           p / $.:.} m 5 + # # + O f _ A a ,                               ",
"                                    $ &.0.0.~ O # + + # + X ; ; $ 7 2                               ",
"                                    O ] 7.4.Z . + + + # O   O + $ 1 < o                             ",
"                        X             g D B 6     + + O   O O O @ & o                               ",
"                      O O + *           O O       O O     O X   O O                                 ",
"                  X X O + $ ~           O O         @   O O     O O                                 ",
"                  . X   X   ] M         O           O O O       O O                                 ",
"                              @       @ O           @ X O       O                                   ",
"                              O @     @             O O O X     O                                   ",
"                                @   % O             $ O   X     @                                   ",
"                                O * *               3 O   O     $                                   ",
"                                  $ @               , O     X   $                                   ",
"                                  O               4 @       X 3 $                                   ",
"                                                  * O           4 O                                 ",
"                                                  $ O             @ X                               ",
"                                                  O                 O                               ",
"                                                  O                   O                             ",
"                                                  O                     X                           ",
"                                                O O                                                 ",
"                                                O                                                   ",
"                                                X                                                   ",
"                                                *                                                   ",
"                                              O *                                                   ",
"                                              O                                                     ",
"                                            X O                                                     ",
"                                            X O                                                     "
};
